<?xml version="1.0" encoding="UTF-8" standalone="no"?>
<!-- Created with Inkscape (http://www.inkscape.org/) -->

<svg
   version="1.1"
   id="svg862"
   width="2450"
   height="1680"
   viewBox="0 0 2450 1680"
   sodipodi:docname="sm_logo BW.svg"
   xmlns:inkscape="http://www.inkscape.org/namespaces/inkscape"
   xmlns:sodipodi="http://sodipodi.sourceforge.net/DTD/sodipodi-0.dtd"
   xmlns="http://www.w3.org/2000/svg"
   xmlns:svg="http://www.w3.org/2000/svg">
  <sodipodi:namedview
     id="namedview1378"
     pagecolor="#ffffff"
     bordercolor="#000000"
     borderopacity="0.25"
     inkscape:showpageshadow="2"
     inkscape:pageopacity="0.0"
     inkscape:pagecheckerboard="0"
     inkscape:deskcolor="#d1d1d1"
     showgrid="false" />
  <defs
     id="defs866" />
  <g
     id="g868">
    <path
       style="fill:#000000"
       d="m 1215.4976,1558.67 c -93.5663,-96.1306 -113.5251,-116.1745 -113.7651,-114.25 -0.1601,1.2836 2.2024,35.2124 5.25,75.3973 6.0332,79.5525 6.1826,82.4366 4.2693,82.4366 -0.7399,0 -25.4912,-57.0763 -59.1854,-136.4812 -31.8526,-75.0646 -58.03171,-136.3632 -58.17592,-136.219 -0.14422,0.1442 -0.70817,10.5332 -1.25323,23.0866 -0.54506,12.5534 -1.1311,22.942 -1.30232,23.0857 -4.48353,3.7649 -172.91607,118.0164 -174.4014,118.3004 -2.38799,0.4565 -2.83857,-0.967 -3.88477,-12.2725 -0.70041,-7.5688 191.81554,-714.73202 194.73244,-715.30505 1.1269,-0.22138 1.838,1.01337 2.5914,4.5 28.3295,131.0985 62.3869,287.26025 62.9464,288.62485 0.5358,1.3068 10.294,-19.9751 34.6184,-75.49999 18.6298,-42.52587 34.0134,-77.48771 34.1858,-77.69297 0.6082,-0.72405 205.7107,-77.1268 207.0462,-77.1268 2.7293,0 -0.6649,6.52348 -114.7896,220.61776 -63.8791,119.8352 -116.6058,219.0615 -117.1704,220.5028 -0.9349,2.3865 8.56,20.3713 106.302,201.3522 104.6559,193.7828 109.7718,203.5272 106.8528,203.5272 -0.7659,0 -52.4558,-52.4628 -114.8666,-116.5839 z m 72.6708,56.3339 c -3.1654,-5.5147 -177.7157,-328.9214 -180.5161,-334.4602 -4.6424,-9.1819 -12.8266,7.4223 109.4514,-222.0587 61.3691,-115.17228 111.4316,-209.53966 111.25,-209.70529 -0.1815,-0.16562 -40.2497,14.61082 -89.0403,32.83655 l -88.7101,33.13768 -33.7634,77 c -36.6068,83.48446 -36.0843,82.49996 -43.7848,82.49996 -8.6505,0 -5.8879,10.0228 -37.5315,-136.16448 -15.675,-72.41549 -28.5802,-131.58533 -28.6781,-131.48855 -0.289,0.28551 -181.4033,663.89163 -182.01404,666.90273 -0.48583,2.3953 9.57069,-4.1795 78.00763,-51 l 78.56536,-53.7497 0.5381,-6 c 0.29596,-3.3 0.82441,-14.5096 1.17433,-24.9102 0.74132,-22.0336 1.37717,-23.5898 9.63879,-23.5898 7.37673,0 5.47213,-3.9237 56.73513,116.8815 26.6244,62.7422 48.5478,113.9368 48.7188,113.7658 0.171,-0.171 -1.4884,-23.8712 -3.6875,-52.6672 -4.7376,-62.034 -4.6206,-57.4489 -1.544,-60.5256 8.1397,-8.1396 -1.0101,-16.2681 108.5455,96.4287 48.675,50.0707 88.6315,91.0554 88.7922,91.0772 0.1606,0.022 -0.8057,-1.8729 -2.1474,-4.2104 z m 560.3312,-11.4304 c -0.013,-12.0008 -0.4419,-47.0196 -0.9526,-77.8196 -0.5107,-30.8 -1.0048,-67.5465 -1.0981,-81.6589 l -0.1696,-25.6588 38.2076,-52.3412 38.2075,-52.3411 -48.5854,-0.2595 c -41.932,-0.224 -48.5854,-0.4606 -48.5854,-1.7275 0,-0.9931 106.6784,-153.6448 115.5103,-165.2898 0.1155,-0.1523 12.6595,-1.1013 27.8755,-2.109 15.2161,-1.0077 27.8767,-2.0434 28.1349,-2.3015 0.7862,-0.7863 -191.6642,-279.33421 -192.7731,-279.01493 -5.5385,1.59476 -45.6133,32.662 -45.2028,35.04263 0.2523,1.4628 10.4096,87.48464 22.5718,191.1596 l 22.1131,188.5 27.1351,49.9452 c 14.9244,27.4698 27.2492,50.6448 27.3885,51.5 0.2755,1.6913 -148.5973,73.0548 -152.401,73.0548 -1.5724,0 -24.8175,-28.8348 -32.4925,-40.3059 -0.3617,-0.5405 -21.6661,7.829 -48.9634,19.2353 -26.5778,11.1058 -49.0435,20.0039 -49.9238,19.7737 -4.1417,-1.0831 -184.9726,-130.0216 -184.9726,-131.8917 0,-1.5501 80.2646,-85.2965 141.3939,-147.5275 l 6.1061,-6.2161 53.5,-20.1841 c 29.425,-11.1012 53.8183,-20.4573 54.2074,-20.7913 0.3891,-0.334 -0.8857,-55.0539 -2.8329,-121.5998 l -3.5403,-120.99256 -3.3456,-3 c -1.8401,-1.65 -39.7981,-31.125 -84.3511,-65.5 -74.9378,-57.81853 -84.9394,-66.07826 -79.8875,-65.97427 0.6875,0.0142 71.675,18.17358 157.75,40.35428 86.075,22.1807 156.7715,40.05662 157.1033,39.72427 0.3318,-0.33236 18.6805,-99.00253 40.775,-219.26706 l 40.1717,-218.66278 96.7956,-185.83712 c 58.9975,-113.268887 97.4076,-185.954982 98.3628,-186.138944 1.6688,-0.321376 0.1536,-6.296613 62.3925,246.051624 14.2094,57.6125 26.1336,104.75 26.4982,104.75 0.3646,0 43.579,-82.40715 96.0319,-183.12701 86.0441,-165.221425 96.7935,-185.28179457 98.415,-183.6603675 0.6479,0.6479566 95.454,385.1830775 95.454,387.1632475 0,4.22665 -6.9366,-1.68616 -54.432,-46.39804 -28.0126,-26.37092 -51.0231,-47.84153 -51.1345,-47.71247 -0.1113,0.12905 -11.5762,21.60254 -25.4775,47.71887 l -25.2751,47.48422 -8.3114,40.01578 c -4.5713,22.00867 -8.3245,40.80436 -8.3405,41.76819 -0.016,0.96383 10.3633,17.19345 23.065,36.06582 l 23.094,34.31341 -18.344,87.67989 c -14.7315,70.4128 -18.6479,87.68074 -19.8873,87.68418 -0.8489,0.002 -12.3239,-11.68998 -25.5,-25.98297 -13.1762,-14.29299 -24.1013,-25.55906 -24.2781,-25.03572 -0.1768,0.52335 -4.0467,22.32938 -8.5997,48.45785 l -8.2783,47.50631 42.8408,188.7794 c 44.8405,197.59147 43.6958,192.27937 41.4368,192.27937 -1.8671,0 -224.8849,-323.6261 -225.3069,-326.94779 -0.1783,-1.4037 16.9775,-96.47367 38.124,-211.26661 l 38.4481,-208.71444 -7.6717,-7.41336 c -14.1729,-13.69566 -83.5347,-78.62849 -83.7387,-78.39184 -0.1111,0.12874 -11.5757,21.60198 -25.477,47.71831 l -25.2751,47.48422 -8.3114,40.01578 c -4.5713,22.00867 -8.3245,40.80436 -8.3405,41.76819 -0.016,0.96383 10.3633,17.19345 23.065,36.06582 l 23.094,34.31341 -18.344,87.67989 c -14.7315,70.4128 -18.6479,87.68074 -19.8873,87.68418 -0.8489,0.002 -12.3239,-11.68998 -25.5,-25.98297 -13.1762,-14.29299 -24.1013,-25.55906 -24.2781,-25.03572 -0.1768,0.52335 -4.0463,22.32738 -8.5989,48.4534 l -8.2775,47.50187 40.9731,180.78385 c 22.5352,99.43111 41.3566,181.20071 41.8254,181.71031 0.5211,0.5664 16.6966,-0.1208 41.6258,-1.7685 47.1557,-3.1168 48.2735,-3.147 48.2735,-1.3036 0,0.7449 -14.3232,22.0464 -31.8293,47.3368 l -31.8294,45.9824 4.5794,-0.3616 c 6.6603,-0.5259 82.0761,-5.312 83.7032,-5.312 4.2441,0 -268.891,399.0379 -273.6701,399.8196 -1.8879,0.3087 -1.9546,-0.4169 -1.9778,-21.5 z m 131.2044,-183.3196 c 66.2181,-95.975 121.7894,-176.53 123.4917,-179.0111 l 3.0952,-4.5111 -33.6336,2.1934 c -48.8662,3.1868 -48.1337,3.2933 -48.1337,-6.9994 0,-5.0149 -2.4593,-1.1161 32.8624,-52.0976 12.1656,-17.5592 22.0038,-32.0413 21.8627,-32.1824 -1.4121,-1.4121 -131.0721,8.6554 -132.2162,10.2659 -0.7198,1.0133 -24.0215,34.0173 -51.7814,73.3423 l -50.4727,71.5 42.9616,0.5 42.9617,0.5 1.911,2.3608 c 5.201,6.4254 5.6548,5.6419 -37.1836,64.1994 l -39.0946,53.4398 0.5985,53 c 0.6502,57.5788 1.7536,118.6851 2.1354,118.2638 0.1315,-0.1451 54.4175,-78.7888 120.6356,-174.7638 z m -355.9416,-0.8762 c 58.9406,-24.6436 50.8683,-25.0536 72.2612,3.67 6.6,8.8616 12.264,16.1332 12.5866,16.1591 0.8132,0.065 133.2338,-62.9446 134.1717,-63.8431 0.4171,-0.3996 -10.4521,-21.4002 -24.1537,-46.6681 l -24.912,-45.9417 -22.6155,-192.5 c -12.4385,-105.87496 -22.6068,-194.12677 -22.5963,-196.1151 0.029,-5.38982 1.4537,-6.66018 31.8432,-28.38486 21.1377,-15.11083 27.5735,-20.18631 26.3265,-20.76214 -2.1443,-0.99018 -292.564,-75.6331 -292.9244,-75.28667 -0.1507,0.14482 29.2906,23.16504 65.425,51.15606 36.1344,27.99101 66.479,52.01775 67.4325,53.39275 2.9907,4.31307 9.9301,253.16156 7.1634,256.87956 -1.5887,2.1348 -11.9716,6.419 -56.0345,23.1204 l -54.0846,20.5 -69.431,71.5 -69.431,71.5 3.4868,2.5 c 49.6545,35.6021 168.0151,118.742 168.7473,118.533 0.55,-0.157 21.5824,-8.8912 46.7388,-19.4092 z m -31.2388,-110.1238 c -5.8403,-5.8403 -3.5055,-10.938 15.1087,-32.9875 l 14.7842,-17.5125 15.9123,-7.25 c 27.2052,-12.3954 29.1967,-11.1783 30.7518,18.7933 0.9566,18.4354 3.4395,16.2666 -34.3155,29.9724 -32.8045,11.9086 -38.175,13.0508 -42.2415,8.9843 z m 48.5,-23.0088 c 9.35,-3.4205 17.3688,-6.5591 17.8195,-6.9746 0.7394,-0.6817 -0.7954,-22.8258 -1.6406,-23.6711 -0.1944,-0.1943 -6.5365,2.5331 -14.0935,6.061 l -13.74,6.4143 -9.1727,10.8863 c -5.045,5.9874 -11.129,13.2301 -13.5201,16.0947 l -4.3474,5.2084 10.8474,-3.9 c 5.9661,-2.145 18.4974,-6.6986 27.8474,-10.119 z m 312.9181,-339.44473 c -20.5799,-90.72284 -37.4147,-166.54718 -37.4106,-168.49853 0,-1.95134 4.0038,-26.47543 8.888,-54.49796 9.8768,-56.66669 9.2062,-54.54994 17.281,-54.54994 5.7049,0 5.5602,-0.12312 26.2889,22.37009 10.4185,11.30533 19.0607,20.43715 19.2049,20.29292 0.4461,-0.44605 31.3297,-148.51484 31.3297,-150.20735 0,-0.87668 -10.125,-16.64138 -22.5,-35.03267 -26.7997,-39.82872 -24.996,-28.76314 -13.6177,-83.54238 l 8.8526,-42.61939 25.698,-48.38061 c 27.5205,-51.81148 28.2299,-52.88061 35.0881,-52.88061 5.3491,0 1.2317,-3.48155 49.3526,41.73123 20.6235,19.37718 37.6392,35.08931 37.8127,34.91585 0.1734,-0.17347 -18.0128,-74.62729 -40.4138,-165.45294 -22.401,-90.82566 -41.0428,-164.812791 -41.4262,-164.415851 -0.3834,0.396941 -41.4495,78.977791 -91.2579,174.624111 l -90.5608,173.9024 -40.0182,217.54319 c -22.01,119.64876 -39.6661,217.89531 -39.2357,218.32567 0.4303,0.43036 8.3059,2.70484 17.5012,5.05441 19.9931,5.10861 20.0414,5.18569 8.4751,13.53644 -4.5527,3.28701 -8.1072,6.55925 -7.9315,7.30157 0.3101,1.30949 175.4921,255.95668 175.842,255.60668 0.097,-0.097 -16.6624,-74.4035 -37.2424,-165.12633 z m 282,-16 c -20.5799,-90.72284 -37.4147,-166.54718 -37.4106,-168.49853 0,-1.95134 4.0038,-26.47543 8.888,-54.49796 9.8768,-56.66669 9.2062,-54.54994 17.281,-54.54994 5.7049,0 5.5602,-0.12312 26.2889,22.37009 10.4185,11.30533 19.0607,20.43715 19.2049,20.29292 0.4461,-0.44605 31.3297,-148.51484 31.3297,-150.20735 0,-0.87668 -10.125,-16.64138 -22.5,-35.03267 -26.7997,-39.82872 -24.996,-28.76314 -13.6177,-83.54238 l 8.8526,-42.61939 25.698,-48.38061 c 27.5205,-51.81148 28.2299,-52.88061 35.0881,-52.88061 5.3491,0 1.2317,-3.48155 49.3526,41.73123 20.6235,19.37718 37.6392,35.08931 37.8127,34.91585 0.1734,-0.17347 -18.0128,-74.62729 -40.4138,-165.45294 -22.401,-90.82566 -41.0428,-164.812791 -41.4262,-164.415851 -0.3834,0.396941 -41.4495,78.977791 -91.2579,174.624111 l -90.5608,173.9024 -40.0114,217.50642 c -39.2572,213.406 -39.9785,217.55788 -38.2638,220.23568 3.6527,5.70438 192.7409,279.79306 192.9082,279.62576 0.097,-0.097 -16.6625,-74.4034 -37.2425,-165.12623 z m -992.7855,535.70353 c -0.2762,-0.9625 -7.9619,-29.2376 -17.0794,-62.8336 l -16.5772,-61.0837 25.9937,-106.9163 c 14.2965,-58.804 26.2428,-107.9581 26.5473,-109.2313 0.9684,-4.0491 3.3901,-2.4417 42.6585,28.3149 21.0663,16.5 45.7324,35.8176 54.8134,42.9281 l 16.5111,12.9281 -8.1576,-8.9281 c -4.4867,-4.9105 -23.9575,-26.0281 -43.2686,-46.9281 -21.7457,-23.5349 -35.0088,-38.6438 -34.8424,-39.6914 0.738,-4.647 96.7573,-81.6011 96.7736,-77.5586 0,0.6875 4.5028,45.3497 10,99.2493 12.122,118.854 11.8463,107.9947 2.5012,98.507 -6.3114,-6.4078 -4.3344,-11.7552 -19.4748,52.6733 l -13.202,56.1796 9.6702,41.5105 c 5.3185,22.8308 9.5139,42.3217 9.323,43.3132 -0.6567,3.4096 -141.3268,40.5751 -142.19,37.5671 z m 69.8674,-27.7462 c 32.45,-8.6788 59.2966,-16.055 59.6591,-16.3917 0.3626,-0.3367 -3.1249,-16.775 -7.75,-36.5297 -10.6384,-45.4393 -11.0034,-36.4711 4.0909,-100.503 6.875,-29.1645 12.5,-53.6846 12.5,-54.489 0,-2.7525 -111.3577,-88.9699 -112.2343,-86.8961 -0.4197,0.9931 -11.5062,46.0475 -24.6365,100.1208 l -23.8734,98.3151 14.331,52.6849 c 17.8126,65.4849 16.3176,60.4328 17.728,59.9088 0.6518,-0.2422 27.7352,-7.5413 60.1852,-16.2201 z m 72.9876,-303.15 c -9.0086,-89.4634 -7.1536,-80.9206 -15.9888,-73.6332 -3.8494,3.1749 -20.1637,16.6914 -36.2542,30.0366 l -29.2554,24.264 44.2447,47.9168 c 24.3345,26.3542 44.3903,47.7712 44.5682,47.5932 0.178,-0.178 -3.1135,-34.4578 -7.3145,-76.1774 z M 949.52363,940.71862 c 0,-0.54284 -47.87207,-189.47926 -48.27894,-190.5422 -0.12158,-0.31764 -17.99606,15.31961 -39.72106,34.74945 -36.31166,32.47548 -43,37.76137 -43,33.98351 0,-0.73951 8.55,-66.23718 19,-145.55037 10.45,-79.31318 19,-144.37261 19,-144.57649 0,-0.82817 105.39757,-78.81979 107.12844,-79.27242 2.48692,-0.65034 2.8123,-19.63165 -4.10115,239.24384 -6.86512,257.06603 -6.70904,252.5 -8.63125,252.5 -0.76782,0 -1.39604,-0.24089 -1.39604,-0.53532 z m 0.42913,-274.46468 c 2.93766,-108.075 5.25112,-196.60425 5.14103,-196.73167 -1.06207,-1.22921 -88.45466,65.9596 -88.94911,68.38549 -1.19295,5.85294 -33.67546,254.81665 -33.40405,256.02689 0.15565,0.69407 14.36696,-11.32516 31.58069,-26.70939 l 31.2977,-27.97132 h 5.49776 c 9.22034,0 7.8617,-3.58938 26.40685,69.76407 14.65714,57.97483 16.53283,64.62029 16.79396,59.5 0.16168,-3.17024 2.69751,-94.18907 5.63517,-202.26407 z M 51.523632,933.23873 c 0,-0.63902 -6.088779,-40.43871 -13.530621,-88.44375 l -13.53062,-87.28189 29.084462,-49.35008 c 15.996454,-27.14255 29.197268,-49.46289 29.335144,-49.60077 0.137875,-0.13787 32.027443,-10.68758 70.865683,-23.44379 l 70.61501,-23.1931 0.64495,-3.43789 c 0.35473,-1.89084 0.39978,-3.68306 0.10012,-3.98273 -0.29966,-0.29966 -32.95368,-2.15801 -72.56448,-4.12967 l -72.019648,-3.58483 v -5.16746 c 0,-2.8421 2.024853,-58.20027 4.499672,-123.01814 2.47482,-64.81788 4.49982,-118.63819 4.5,-119.60069 3.07e-4,-1.63574 2.464039,-1.75 37.735646,-1.75 h 37.73532 l 71.96395,-19.61847 71.96394,-19.61848 46.93186,-39.50944 c 52.99287,-44.61187 51.22092,-43.42678 50.32581,-33.65801 -0.34795,3.79742 -3.83945,51.4544 -7.75888,105.9044 -3.91942,54.45 -7.18722,99.07398 -7.26177,99.16439 -0.0746,0.0904 -28.93555,6.2935 -64.13555,13.78464 -35.2,7.49113 -64.45,13.82115 -65,14.0667 -0.55,0.24555 26.3375,0.17074 59.75,-0.16624 59.03176,-0.59537 60.74934,-0.55948 60.72658,1.26891 -0.086,6.90957 -11.83193,232.5585 -12.11807,232.79801 -0.19718,0.16506 -41.08351,13.48038 -90.85851,29.58961 -49.775,16.10922 -91.10858,29.60418 -91.85239,29.98879 -0.74382,0.38462 -30.93315,39.35563 -67.0874,86.60224 -58.864462,76.92448 -69.060208,89.53075 -69.060208,85.38774 z m 67.108778,-101.6173 c 32.66517,-42.69789 60.32716,-78.24948 61.47109,-79.00354 1.14393,-0.75406 41.86893,-14.26143 90.5,-30.01637 48.63107,-15.75493 88.85878,-29.0395 89.39492,-29.52124 0.80914,-0.72707 11.29204,-193.20063 11.4709,-210.61401 l 0.0543,-5.28767 -62.38565,0.69747 -62.38565,0.69748 -2.61435,-2.61435 c -2.03309,-2.0331 -2.61434,-3.60031 -2.61434,-7.04902 0,-8.46454 -4.00728,-7.16088 71.45562,-23.24604 37.37339,-7.96625 68.09289,-14.62538 68.26557,-14.79806 0.43274,-0.43273 13.37383,-178.85045 12.99962,-179.22466 -0.16548,-0.16549 -18.03259,14.62406 -39.70467,32.86567 l -39.40379,33.16655 -72.55557,19.79015 -72.55558,19.79015 h -35.2506 c -19.38782,0 -35.259883,0.1125 -35.271231,0.25 -0.212517,2.5749 -8.750991,229.29235 -8.639166,229.39107 0.08789,0.0776 28.734797,1.5368 63.659797,3.24269 89.03424,4.34883 81.5861,2.72792 80.80628,17.58559 -0.71695,13.65954 4.88856,11.32598 -138.470373,57.64493 l -6.164094,1.99161 -27.489451,46.69705 -27.489451,46.69706 11.369455,73 c 6.253201,40.15 11.384796,73.5625 11.403546,74.25 0.05921,2.17107 -0.370582,2.71691 60.142868,-76.38251 z m 1277.09569,-18.88981 -65.2205,-68.52233 0.6738,-86.13708 0.6738,-86.13709 -12.3723,0.69921 c -6.8047,0.38457 -12.5322,0.85917 -12.7277,1.05466 -0.1955,0.19549 4.3831,38.74191 10.1747,85.6587 5.7915,46.91679 10.3462,85.48704 10.1216,85.71167 -0.5152,0.51525 -122.583,31.12681 -124.2779,31.16581 -1.794,0.0413 -1.6633,-8.30545 2.2067,-140.97123 l 3.3985,-116.5 -16.4276,-59.55034 c -9.0352,-32.75269 -16.4276,-60.36768 -16.4276,-61.36664 0,-3.19291 2.6602,-1.59773 53.9074,32.32582 l 50.0558,33.13489 65.1655,-16.02186 c 57.0641,-14.03003 69.8713,-16.91711 69.8713,-15.75078 0,0.9158 49.0394,442.02986 49.5246,445.47891 1.1883,8.44594 -1.6237,5.80057 -68.3201,-64.27232 z m 32.3086,-164.60754 c -12.4154,-111.85358 -22.6724,-203.61955 -22.7933,-203.92439 -0.1209,-0.30483 -27.2198,6.09665 -60.2198,14.22552 -40.2037,9.90335 -61.8361,14.78785 -65.565,14.80425 l -5.565,0.0245 -41.0932,-27.25 c -22.6013,-14.9875 -40.9149,-26.96422 -40.697,-26.61493 0.2179,0.34929 6.2736,21.87983 13.4571,47.84564 l 13.0609,47.21057 -3.55,123.15436 c -1.9524,67.7349 -3.5494,123.66141 -3.5488,124.28113 6e-4,0.68363 20.4518,-3.98658 52.001,-11.87487 42.0192,-10.50612 51.9993,-13.31357 51.9962,-14.62677 0,-0.89382 -4.2772,-36.19688 -9.5,-78.45123 -10.1635,-82.22462 -10.5755,-87.11945 -7.6385,-90.74648 3.8069,-4.70132 36.4115,-5.74916 40.8479,-1.31277 l 2.6146,2.61465 -0.6033,85.47031 -0.6033,85.47031 54.6875,57.43214 c 30.0781,31.58768 54.822,57.02851 54.9865,56.53518 0.1644,-0.49333 -9.8591,-92.41352 -22.2745,-204.2671 z m -335.0682,154.87986 c -21.3186,-30.9375 -38.849,-56.37156 -38.9565,-56.52013 -0.1074,-0.14858 -18.57,7.38892 -41.028,16.75 -38.25318,15.94494 -44.46037,18.21098 -44.46037,16.231 0,-0.43401 12.57203,-64.33573 27.93783,-142.00381 l 27.93784,-141.21469 -2.4206,-76.24618 c -2.877,-90.6248 -2.8657,-89.74619 -1.1537,-89.74619 0.7157,0 19.4651,25.9875 41.6652,57.75 22.2001,31.7625 40.4804,57.90341 40.6228,58.09091 0.1425,0.1875 9.1664,-5.775 20.0532,-13.25 10.8867,-7.475 20.5182,-13.59091 21.4032,-13.59091 1.738,0 37.77,127.87091 36.5763,129.80247 -0.3209,0.51921 -13.9796,8.03365 -30.3528,16.69875 -16.3731,8.66511 -29.8591,15.82446 -29.9689,15.90967 -0.1098,0.0852 2.9225,62.01513 6.7384,137.62202 8.0882,160.25933 7.2815,139.96709 5.5642,139.96709 -0.7683,0 -18.8394,-25.3125 -40.1581,-56.25 z m 23.4168,-102.02764 c -5.7181,-113.65784 -6.0881,-123.72168 -4.6287,-125.87832 0.9464,-1.39853 12.7076,-8.19285 29.1578,-16.84404 15.1644,-7.975 27.5801,-15.02058 27.5904,-15.65684 0.026,-1.58185 -28.6718,-105.36706 -29.3118,-106.00712 -0.2813,-0.28125 -7.5309,4.25308 -16.1102,10.0763 -24.6477,16.7295 -19.3591,20.05278 -59.5764,-37.43698 -17.7241,-25.3362 -32.4287,-45.86276 -32.6769,-45.6146 -0.2482,0.24817 0.4983,31.20602 1.6588,68.79523 l 2.11,68.34401 -25.9701,130.98389 c -14.28355,72.04114 -25.79936,131.15465 -25.59065,131.36336 0.2087,0.2087 15.60515,-5.97155 34.21425,-13.73389 45.9697,-19.17508 36.4457,-23.24512 74.4338,31.8091 16.6732,24.16367 30.4499,43.79899 30.6148,43.63406 0.165,-0.16494 -2.4968,-55.89031 -5.9151,-123.83416 z m -577.49927,69.52764 c 5.06971,-76.24445 6.90047,-146.41689 3.59031,-137.61558 -1.60105,4.257 -5.05379,27.76166 -10.48331,71.36558 -6.50531,52.24343 -7.66843,58.03773 -11.8724,59.14456 -6.89378,1.81502 -127.37019,15.41558 -128.3018,14.48398 -0.22026,-0.22026 2.78894,-23.73929 6.68712,-52.26451 3.89817,-28.52522 8.74171,-64.23903 10.76342,-79.36403 l 3.67583,-27.5 0.0392,-41.79323 c 0.0384,-40.95103 0.0795,-41.80285 2.03922,-42.27067 8.86454,-2.11615 152.53119,-30.44076 154.48109,-30.45673 1.93902,-0.0159 5.29091,2.90051 14.55991,12.6682 l 12.04101,12.68884 34.06361,-16.16821 c 40.3738,-19.16331 34.44529,-18.45238 47.94056,-5.74889 l 11.06872,10.4193 14.90763,-1.91301 14.90764,-1.91301 6.67309,-6.75629 c 3.67021,-3.71597 21.82086,-22.7313 40.33479,-42.2563 18.51393,-19.525 34.53024,-35.6438 35.59182,-35.81955 1.87224,-0.30997 1.92974,0.60489 1.91708,30.5 -0.007,16.95075 0.5013,93.08185 1.12995,169.18022 0.81493,98.6486 0.83449,138.55134 0.0681,139.02497 -1.24346,0.76851 -135.00126,10.67963 -135.49694,10.03999 -0.18142,-0.23409 0.0443,-10.10063 0.5015,-21.92563 1.22669,-31.7244 2.38673,-109.89719 1.81041,-122 l -0.5,-10.5 -1.76551,9.06188 c -3.26715,16.76939 -9.55246,63.45662 -15.5738,115.68204 -0.99836,8.65916 -2.12653,16.05525 -2.50705,16.43577 -0.74333,0.74333 -105.22329,15.27119 -110.04659,15.30189 l -2.89296,0.0184 0.64831,-9.75 z m 58.79354,-8.33707 c 24.38923,-3.34789 44.39362,-6.16039 44.4542,-6.25 0.0606,-0.0896 1.76434,-14.11293 3.78615,-31.16293 6.62724,-55.8878 12.64437,-97.4074 15.61115,-107.72052 2.48415,-8.63537 14.42105,-9.59498 18.65696,-1.49984 2.00431,3.8304 2.15888,63.14159 0.31039,119.09789 -0.57919,17.53264 -0.83427,32.09632 -0.56686,32.36374 0.48666,0.48665 114.80528,-7.69073 115.41589,-8.25587 0.32056,-0.29669 -1.72459,-290.09268 -2.11904,-300.26751 l -0.20478,-5.2821 -32.40634,34.11149 c -38.37224,40.3913 -33.18457,36.51811 -52.19065,38.96635 -24.97399,3.21699 -23.27819,3.56162 -34.51155,-7.01363 -11.54328,-10.86702 -5.2714,-11.74982 -42.62724,6 -40.55968,19.27214 -36.37048,19.06904 -52.35749,2.53845 l -12.09327,-12.50445 -71.40673,14.28123 -71.40673,14.28123 -0.57327,39.95177 c -0.64064,44.64723 0.27919,35.42892 -13.86505,138.95177 -3.23128,23.65 -5.72097,43.15857 -5.53266,43.35237 0.72822,0.74945 105.76054,-11.08927 109.12335,-12.29983 1.81745,-0.65426 2.89065,-7.31256 8.80532,-54.62998 9.69203,-77.53633 10.33555,-79.92256 21.55349,-79.92256 12.44217,0 13.9027,32.07971 6.36258,139.75 -0.62043,8.85954 -0.56154,9.25 1.39517,9.25 1.12362,0 21.99777,-2.73918 46.38701,-6.08707 z m 898.60493,-41.66293 c -28.6698,-26.9664 -42.2531,-40.3932 -42.2365,-41.75 0.019,-1.55601 117.7525,-206.57679 120.4592,-209.76724 1.1193,-1.31942 54.3299,-11.87599 58.0164,-11.51002 3.0123,0.29904 156.0132,103.55336 161.8252,109.20946 1.1302,1.09991 -9.0627,163.74385 -10.3642,165.37728 -0.2852,0.35795 -240.764,28.19052 -243.5715,28.19052 -1.0834,0 -19.6132,-16.69126 -44.1286,-39.75 z m 163.2391,15.63766 c 62.975,-7.23935 114.5916,-13.2297 114.7035,-13.3119 0.2821,-0.20713 10.2965,-142.54885 10.2965,-146.35071 0,-2.9492 -2.9282,-5.07914 -71.25,-51.82698 -39.1875,-26.81326 -73.8209,-50.5488 -76.9632,-52.74565 l -5.7132,-3.99426 -24.0598,4.88051 -24.0597,4.88051 -57.5467,99.33149 c -31.6507,54.63232 -57.3867,99.81157 -57.1911,100.39833 0.5019,1.50572 75.0668,71.69662 76.2837,71.80886 0.55,0.0507 52.525,-5.83086 115.5,-13.0702 z m -72.5455,-91.34221 c -4.7814,-4.78143 -3.9074,-7.65424 12.007,-39.46842 20.5242,-41.02965 15.9172,-40.23136 58.1956,-10.08387 31.7801,22.66145 35.3429,25.8602 35.3429,31.73165 0,3.64997 -4.4388,9.27519 -7.3189,9.27519 -0.81,0 -20.9821,2.47399 -44.8269,5.49776 -50.3046,6.37915 -50.081,6.36638 -53.3997,3.04769 z m 53.1932,-13.60179 c 21.8891,-2.78098 39.8701,-5.14348 39.9579,-5.25 0.088,-0.10651 -12.9346,-9.55867 -28.9386,-21.00479 l -29.0981,-20.81112 -12.7307,25.31112 c -7.0018,13.92112 -12.7548,25.64863 -12.7844,26.06113 -0.086,1.19333 1.6755,1.01937 43.5939,-4.30634 z M 844.73055,511.50394 c 0.2421,-0.9625 6.46839,-27.57376 13.83619,-59.13612 l 13.39601,-57.38613 51.98328,-50.86387 c 52.77137,-51.63501 56.29893,-54.64515 55.21237,-47.11388 -0.29756,2.0625 -0.79547,25.8 -1.10647,52.75 -0.31099,26.95 -0.83857,53.20214 -1.17239,58.33809 l -0.60696,9.33808 -63.86637,47.91192 c -60.0959,45.08334 -68.91798,51.10093 -67.67566,46.16191 z m 122.16407,-109.75 c 0.31273,-4.95 0.83329,-26.03672 1.15679,-46.85938 l 0.58819,-37.85938 -2.80799,2.10705 c -1.54439,1.15889 -21.15199,20.22061 -43.57245,42.35939 l -40.76447,40.25232 -9.98553,42.78973 c -5.49204,23.53435 -9.98553,43.22336 -9.98553,43.75336 0,0.53 23.58054,-16.70038 52.40119,-38.28973 l 52.4012,-39.25336 z"
       id="path905" />
  </g>
  <path
     style="fill:#ff0000;stroke-width:0.707107"
     d="m 1075.7441,1493.2327 c -2.8697,-6.8714 -52.7245,-123.9079 -58.3597,-137.0019 -7.9596,-18.4952 -16.2798,-35.917 -18.61581,-38.9796 -2.03167,-2.6637 -4.88163,-3.4658 -9.17265,-2.5819 -4.91186,1.0119 -5.27967,2.5388 -6.39591,26.5516 -0.52839,11.3667 -1.14851,22.2577 -1.37805,24.2023 l -0.41736,3.5355 -8.98581,6.127 c -4.94221,3.3698 -27.91861,19.0894 -51.05868,34.9323 -53.63342,36.7204 -90.39428,61.4554 -93.62067,62.994 -1.39045,0.663 -2.67381,1.0598 -2.8519,0.8817 -0.1781,-0.1781 35.74634,-132.5259 79.83208,-294.1063 102.60856,-376.07461 101.68756,-372.7233 102.25196,-372.09565 0.5176,0.57567 2.7449,10.69028 30.0129,136.2958 23.8392,109.81145 26.0981,119.53325 29.4121,126.58355 1.6646,3.5411 3.1977,4.1474 8.149,3.2224 2.5333,-0.4733 3.9259,-1.2268 5.2924,-2.8638 3.8736,-4.6398 11.6605,-21.6465 49.0581,-107.14316 11.5678,-26.44579 21.3912,-48.43148 21.8298,-48.8571 1.2766,-1.23869 176.4264,-66.37058 176.9833,-65.81367 0.6281,0.62806 -11.5191,23.61995 -133.2447,252.20303 -81.2884,152.6478 -88.5495,166.8764 -88.5495,173.519 0,1.5742 7.3794,15.9169 25.3303,49.2318 27.0367,50.1774 75.7664,140.512 86.1986,159.794 l 6.3123,11.6672 -26.733,0.1852 -26.7329,0.1852 -31.6573,-31.7534 c -17.4116,-17.4644 -33.1466,-32.7417 -34.9667,-33.9495 -4.6912,-3.1131 -6.7474,-2.9186 -9.9759,0.9437 -2.5027,2.994 -2.6246,3.38 -2.6235,8.3085 7e-4,2.8428 0.7919,15.351 1.7584,27.7961 0.9664,12.445 1.7614,23.9797 1.7666,25.6326 l 0.01,3.0052 h -8.8749 -8.8749 z"
     id="path1392" />
  <path
     style="fill:#ff0000;stroke-width:0.707107"
     d="m 1251.0638,1452.8347 c -0.5898,-1.4073 -7.6866,-26.8291 -15.7705,-56.4929 l -14.6981,-53.9342 11.9692,-49.3034 c 25.4904,-104.9995 36.1515,-148.3188 36.6284,-148.8326 0.7056,-0.7601 7.6035,4.0186 28.2882,19.5971 28.675,21.5964 69.1694,53.4375 81.6624,64.2119 l 2.7601,2.3803 -4.0588,17.6301 c -2.2322,9.6966 -6.7572,29.0853 -10.0555,43.086 -8.5678,36.369 -9.4377,40.7537 -9.9185,49.9939 -0.5255,10.0967 0.018,13.7959 5.4344,36.9802 5.4265,23.228 9.1892,40.8336 9.1892,42.9958 0,1.2324 -0.4646,1.8405 -1.591,2.0826 -0.8751,0.188 -16.8645,4.506 -35.5321,9.5954 -18.6677,5.0895 -45.0323,12.2494 -58.588,15.911 l -24.6469,6.6575 z"
     id="path1394" />
  <path
     style="fill:#ff0000;stroke-width:0.707107"
     d="m 1390.1165,1208.8756 c -1.3307,-1.5136 -14.3772,-15.5939 -28.9922,-31.2895 -37.2173,-39.9693 -56.5181,-60.9495 -56.4781,-61.3926 0.019,-0.2085 12.9398,-11.0386 28.7131,-24.0671 15.7734,-13.0284 31.5802,-26.1568 35.1262,-29.1742 3.546,-3.0174 6.7737,-5.3803 7.1726,-5.2511 1.375,0.4456 2.394,3.6882 3.4853,11.0908 1.0629,7.2102 12.6116,121.5787 13.495,133.6432 0.2421,3.3057 0.5877,6.7263 0.7681,7.6014 0.4781,2.3194 -0.5487,1.9571 -3.29,-1.1609 z"
     id="path1396" />
  <path
     style="fill:#ff0000;stroke-width:0.0220971"
     d="m 1265.7317,1157.4399 c 0.028,-0.1064 0.2954,-1.1629 0.5936,-2.3478 1.6005,-6.3601 2.4431,-9.5569 2.8395,-10.7724 l 0.1297,-0.3977 h 0.1081 c 0.2588,0 1.1223,0.4853 2.6273,1.4678 2.7127,1.7712 4.8408,3.2441 8.2974,5.7431 2.0223,1.462 5.5047,4.023 7.9761,5.8656 l 0.8497,0.6335 h -11.7365 -11.7365 z"
     id="path1400" />
  <path
     style="fill:#ff0000;stroke-width:0.25"
     d="m 1705.3224,1435.3125 c -4.409,-5.6035 -8.6476,-11.2426 -13.9523,-18.5625 -5.5204,-7.6174 -6.9589,-9.4228 -9.2783,-11.6446 -2.952,-2.8277 -5.2529,-3.7842 -9.0592,-3.7662 -5.5958,0.027 -10.7235,1.7966 -35.0234,12.0894 -10.7646,4.5597 -51.5967,21.6096 -57.7048,24.0953 l -3.3206,1.3514 -2.6794,-1.7923 c -16.8444,-11.2678 -112.223,-78.3216 -161.3737,-113.4502 l -8.1943,-5.8566 1.594,-1.6381 c 0.8766,-0.901 16.6051,-17.1069 34.9522,-36.0131 18.3471,-18.9063 48.8702,-50.35 67.8292,-69.875 l 34.471,-35.5 9.0211,-3.4365 9.0211,-3.4364 h 109.3012 l 109.3011,-10e-4 0.1376,0.8125 c 0.076,0.4469 3.1243,26.2937 6.7746,57.4375 l 6.6371,56.625 12.337,22.75 c 15.914,29.3461 20.0364,36.9963 25.1916,46.75 5.2669,9.9651 11.4448,22.3117 11.4448,22.8727 0,0.4668 -3.8064,2.3393 -38.125,18.7548 -54.3102,25.9781 -95.1751,45.2475 -95.957,45.2475 -0.1902,0 -1.6957,-1.7156 -3.3456,-3.8125 z m -104.903,-124.2079 c 5.6856,-0.7862 16.1316,-4.2164 45.4556,-14.9262 12.6039,-4.6032 16.4694,-6.2754 19.5365,-8.4515 2.628,-1.8645 3.6296,-3.7032 3.9661,-7.281 0.1566,-1.6662 -0.6213,-16.17 -1.1436,-21.3209 -1.2336,-12.1643 -3.7576,-15.7356 -10.4495,-14.7855 -4.2534,0.604 -9.1634,2.5413 -26.8736,10.6032 l -8.464,3.8529 -8.7409,10.3522 c -16.8554,19.9626 -20.9506,25.39 -23.091,30.6022 -0.5656,1.3775 -0.7209,2.1491 -0.7293,3.625 -0.013,2.3055 0.5384,3.5632 2.3937,5.4578 2.3223,2.3716 4.0107,2.8428 8.14,2.2718 z"
     id="path1402" />
  <path
     style="fill:#ff0000;stroke-width:0.0110485"
     d="m 1358.2527,1422.8922 v -3.7123 h 7.0027 7.0027 l 0.053,0.2955 c 0.3327,1.8564 0.4497,2.7427 0.38,2.8786 -0.014,0.027 -0.1001,0.064 -0.3569,0.1501 l -0.221,0.074 -0.116,0.1159 c -0.2468,0.2465 -0.5599,0.403 -1.0376,0.5188 -0.4688,0.1136 -1.4928,0.3808 -2.9675,0.7743 -1.9914,0.5313 -5.9197,1.5876 -8.7087,2.3415 -0.5604,0.1515 -1.0216,0.2755 -1.0248,0.2755 0,0 -0.01,-1.6705 -0.01,-3.7123 z"
     id="path1404" />
  <path
     style="fill:#ff0000;stroke-width:0.707107"
     d="m 1275.1762,1603.8768 c -7.7832,-7.8654 -37.0036,-37.8474 -64.9341,-66.6267 -59.3104,-61.1127 -101.8284,-103.7136 -106.7464,-106.9546 -4.673,-3.0796 -5.9931,-2.9441 -9.6164,0.9866 l -3.0234,3.2801 0.4552,9.2711 c 0.2504,5.0991 1.7145,26.1356 3.2537,46.7478 1.5391,20.6122 2.9935,41.295 3.2319,45.9619 l 0.4336,8.4853 -1.5174,-3.182 c -1.4459,-3.0321 -27.3803,-63.6503 -67.3113,-157.3312 -20.6769,-48.5095 -29.2583,-66.8406 -32.18761,-68.7581 -2.13501,-1.3975 -7.57259,-1.5337 -9.97163,-0.2498 -0.8105,0.4338 -1.8158,1.9782 -2.23401,3.432 -0.41821,1.4539 -1.24627,12.5075 -1.84014,24.5637 -0.59387,12.0561 -1.29977,22.7753 -1.56866,23.8203 -0.38795,1.5078 -5.0149,4.9955 -22.40921,16.8917 -119.58046,81.7825 -133.15096,90.837 -134.34304,89.637 -0.26863,-0.2705 24.7322,-92.3933 84.69288,-312.0755 l 40.52995,-148.4924 51.05237,-0.1814 c 28.0788,-0.1 51.0524,0.019 51.0524,0.2634 0,1.2128 7.4763,33.7991 9.9224,43.2479 2.922,11.2867 4.7928,15.9207 6.878,17.0367 2.3124,1.2375 7.8552,0.075 10.0346,-2.104 2.7662,-2.7662 7.907,-12.9674 18.849,-37.4029 l 9.3408,-20.8597 67.248,-0.1803 67.2479,-0.1804 -2.065,3.7159 c -3.7181,6.6904 -95.0311,178.4952 -107.5809,202.4129 -19.1165,36.4323 -26.1347,51.3997 -26.1347,55.7361 0,2.302 1.0941,4.3507 120.8538,226.2941 19.9048,36.8883 42.2327,78.2161 49.6177,91.8395 7.3849,13.6233 13.3178,24.8791 13.1841,25.0128 -0.1336,0.1336 -6.6111,-6.1924 -14.3944,-14.0578 z"
     id="path1406" />
  <path
     style="fill:#ff0000;stroke-width:0.0220971"
     d="m 1289.3857,1618.2967 c -1.2635,-1.2706 -4.1322,-4.1931 -7.543,-7.6842 -0.5343,-0.5469 -1.1011,-1.1262 -1.2597,-1.2872 l -0.2882,-0.2928 h 2.3648 2.3647 l 0.4115,0.7789 c 0.6044,1.144 1.45,2.7557 1.9716,3.7578 0.4332,0.8322 0.6287,1.1909 1.2006,2.2029 0.692,1.2244 1.4832,2.7387 1.6371,3.1329 0.08,0.2059 0.1072,0.3143 0.078,0.3143 -0.011,0 -0.4327,-0.4152 -0.9372,-0.9226 z"
     id="path1408" />
  <path
     style="fill:#ff0000;stroke-width:0.00390625"
     d="m 1097.4824,1543.458 c -0.8619,-1.8073 -0.8017,-1.6805 -0.8992,-1.8955 -0.1112,-0.2451 -0.4493,-1.006 -0.5152,-1.1592 l -0.013,-0.03 h 0.9718 0.9719 v 0.075 c 0.142,2.2794 0.2218,3.8485 0.2189,4.3038 -4e-4,0.066 6e-4,0.1512 0,0.1904 0,0.039 0,0.071 0,0.071 -9e-4,0 -0.3355,-0.7001 -0.7435,-1.5557 z"
     id="path1410" />
  <path
     style="fill:#ff0000;stroke-width:0.707107"
     d="m 1705.7207,1435.9571 c -1.5295,-1.8473 -7.4149,-9.5636 -13.0785,-17.1473 -6.083,-8.1452 -11.3546,-14.488 -12.8802,-15.4975 -3.6047,-2.385 -8.9544,-2.2994 -16.6965,0.2674 -3.2784,1.0868 -14.0748,5.3864 -23.992,9.5544 -9.9172,4.1681 -27.8527,11.6575 -39.8568,16.6431 l -21.8256,9.0647 -2.216,-1.2045 c -6.0436,-3.2851 -170.1539,-118.9208 -170.1539,-119.8941 0,-0.2406 31.1506,-32.5313 69.2237,-71.757 l 69.2237,-71.3195 32.4229,-12.2921 c 48.7513,-18.4825 65.0412,-24.866 71.6673,-28.0845 l 6.0104,-2.9194 0.2267,-22.6274 c 0.4847,-48.375 -3.9377,-200.21714 -6.6907,-229.72035 l -0.4535,-4.86042 -15.7984,-12.59255 c -8.6891,-6.92591 -38.5641,-30.3178 -66.3888,-51.98197 -27.8248,-21.66418 -50.4517,-39.52813 -50.2822,-39.69767 0.254,-0.25395 56.2367,13.81591 100.496,25.25715 5.8337,1.50803 28.1075,7.23718 49.4975,12.73146 36.7167,9.43114 137.4511,35.51236 140.891,36.47822 0.8751,0.2457 1.591,0.70076 1.591,1.01126 0,1.15087 -6.7004,6.37092 -27.191,21.18352 -23.4569,16.95688 -27.7063,20.34165 -29.6764,23.63805 -1.3557,2.2684 -1.3522,2.3399 1.2575,25.56123 3.5856,31.90547 17.2367,149.00957 31.2436,268.01957 l 11.6599,99.0691 12.2419,22.5533 c 24.957,45.9782 36.527,68.0239 36.527,69.5992 0,0.76 -3.8879,2.6846 -46.6691,23.1027 -46.9643,22.4146 -86.7924,41.2206 -87.2986,41.2206 -0.138,0 -1.5024,-1.5114 -3.0319,-3.3587 z m -100.9419,-126.0046 c 9.2292,-2.2305 50.129,-16.7492 56.9221,-20.2063 3.9831,-2.027 6.7861,-4.9936 7.3777,-7.8083 0.513,-2.4406 -0.771,-22.8666 -1.7683,-28.1308 -0.8543,-4.5096 -2.0022,-6.736 -4.3802,-8.4959 -1.7681,-1.3086 -2.3126,-1.3698 -5.7556,-0.6477 -4.6121,0.9674 -10.1768,3.1525 -24.0939,9.461 l -10.5891,4.7999 -7.3553,8.7017 c -12.8493,15.2013 -21.2807,26.0002 -23.0941,29.5787 -2.1963,4.3341 -2.2864,8.3137 -0.2471,10.9063 2.7671,3.5177 4.8344,3.8109 12.9838,1.8414 z"
     id="path1412" />
  <path
     style="fill:#ff0000;stroke-width:0.707107"
     d="m 1858.6969,1589.827 c -0.2317,-2.8604 -0.7306,-26.9973 -1.1087,-53.6375 -0.3781,-26.6403 -0.891,-62.787 -1.1398,-80.3261 l -0.4525,-31.8892 30.7067,-42.0034 c 44.5281,-60.9096 47.9415,-65.9589 47.9415,-70.9166 0,-1.4481 -0.73,-3.1276 -2.0435,-4.7011 l -2.0435,-2.4482 -42.5814,-0.4897 c -23.4198,-0.2693 -42.701,-0.6093 -42.8471,-0.7554 -0.1462,-0.1461 22.7436,-32.8584 50.8662,-72.6939 l 51.1319,-72.4282 3.4815,-0.4876 c 9.2783,-1.2997 63.6211,-5.826 95.4053,-7.9465 29.4139,-1.9625 32.8804,-2.0815 32.8804,-1.1288 0,0.4816 -7.7098,12.0572 -17.133,25.7234 -9.4232,13.6663 -20.8599,30.2572 -25.4149,36.8686 -10.7978,15.6728 -12.1807,18.3895 -11.7329,23.0494 0.2313,2.4077 0.8496,4.0882 1.8825,5.1171 1.4844,1.4786 2.0242,1.5268 15.4777,1.3825 7.6668,-0.082 25.2357,-0.9181 39.0419,-1.8576 13.8063,-0.9395 25.1769,-1.6462 25.2679,-1.5706 0.091,0.076 -13.7632,20.3217 -30.7873,44.9912 -17.024,24.6694 -72.4317,104.9929 -123.128,178.4967 -50.6964,73.5037 -92.4169,133.9152 -92.7124,134.2476 -0.2954,0.3325 -0.7267,-1.7358 -0.9585,-4.5961 z"
     id="path1414" />
  <path
     style="fill:#ff0000;stroke-width:0.176777"
     d="m 1985.4159,1103.8379 c -7.6323,-10.9228 -36.6817,-52.9641 -60.4327,-87.4603 l -6.8768,-9.9879 24.6496,-0.045 c 13.5572,-0.025 24.6692,-0.025 24.6931,0 0.052,0.053 14.5474,64.2221 19.3376,85.6047 1.8514,8.2644 3.5143,15.6823 3.6953,16.4845 l 0.3292,1.4584 h -0.5824 c -0.5649,0 -0.7089,-0.1812 -4.8129,-6.0546 z"
     id="path1420" />
  <path
     style="fill:#ff0000;stroke-width:0.0441942"
     d="m 1990.6938,1111.2956 c -0.2704,-0.3484 -3.1926,-4.4845 -5.1442,-7.2809 -4.6175,-6.6166 -15.8595,-22.8418 -15.8595,-22.8895 0,-0.014 3.2964,-0.025 7.3253,-0.025 h 7.3253 l 0.9649,4.2979 c 3.383,15.0671 5.3461,23.8343 5.4057,24.141 0.038,0.1945 0.1365,0.6817 0.2193,1.0828 0.083,0.401 0.1504,0.754 0.1501,0.7844 -4e-4,0.032 -0.056,0.055 -0.1295,0.055 -0.097,0 -0.161,-0.041 -0.2574,-0.1658 z"
     id="path1422" />
  <path
     style="fill:#ff0000;stroke-width:0.00552427"
     d="m 1991.0975,1111.8323 c -0.027,-0.034 -0.1021,-0.1334 -0.1662,-0.2196 -0.064,-0.086 -0.1646,-0.2215 -0.2235,-0.3005 -0.2598,-0.3488 -0.8989,-1.2452 -2.0757,-2.9113 -0.1352,-0.1914 -0.2662,-0.3766 -0.291,-0.4115 l -0.045,-0.064 h 1.034 c 0.5686,-7e-4 1.0345,-7e-4 1.0353,10e-5 8e-4,8e-4 0.02,0.086 0.044,0.1892 0.094,0.4186 0.3959,1.7573 0.3985,1.7664 0,0.01 -4e-4,0.01 -0.011,0.01 -0.01,0 -0.014,0 -0.014,0.01 0,0 0.047,0.2359 0.1046,0.5179 0.057,0.2821 0.1173,0.5787 0.1329,0.6592 0.032,0.1633 0.07,0.3568 0.1241,0.6226 0.02,0.098 0.036,0.183 0.036,0.1892 0,0.01 0,0.011 -0.016,0.011 -0.014,0 -0.023,-0.01 -0.066,-0.063 z"
     id="path1424" />
  <path
     style="fill:#ff0000;stroke-width:0.176777"
     d="m 1987.8057,1107.285 c -5.063,-7.1661 -37.6314,-54.2845 -62.4687,-90.3771 -33.4925,-48.66975 -63.7696,-92.72411 -64.1178,-93.29386 -0.1079,-0.17655 8.6719,-0.2207 43.6718,-0.21961 l 43.8069,10e-4 9.1774,40.52469 c 17.2961,76.37478 23.3803,103.30388 29.4651,130.41558 1.8439,8.2157 3.3953,15.0769 3.4476,15.247 0.078,0.2537 -0.016,0.3094 -0.5225,0.3094 -0.5944,0 -0.6867,-0.098 -2.4598,-2.6075 z"
     id="path1426" />
  <path
     style="fill:#ff0000;stroke-width:2.82843"
     d="m 1956.5184,1062.7815 c -8.9932,-12.43 -79.6263,-115.09389 -120.3397,-174.91119 -18.76,-27.56285 -20.7901,-34.51255 -11.7335,-40.16853 7.9631,-4.97303 5.1228,-7.93218 -11.4234,-11.90157 -7.7878,-1.86826 -14.6571,-4.22352 -15.2651,-5.23395 -1.2871,-2.13885 -3.61,11.05961 42.2416,-240.01848 l 35.7486,-195.75496 86.2729,-165.5766 c 83.0475,-159.386347 86.5714,-165.57661 94.2548,-165.57661 h 7.9818 l 35.603,144.474 c 19.5817,79.46069 35.6031,145.64589 35.6031,147.0782 0,1.43232 -3.5739,2.60422 -7.942,2.60422 -6.1589,0 -14.7281,-6.34982 -38.1698,-28.28427 -16.6254,-15.55635 -32.6239,-28.28427 -35.5524,-28.28427 -7.3777,0 -9.0659,2.46668 -36.2235,52.92753 -22.817,42.39555 -24.4485,46.62476 -32.2682,83.64819 -4.5298,21.44723 -8.236,43.25915 -8.236,48.47092 0,7.04873 5.5446,17.92938 21.6461,42.47786 l 21.6461,33.00189 -13.5892,65.6054 c -7.474,36.08295 -14.169,67.19635 -14.8777,69.1409 -0.7086,1.94454 -4.6294,3.53553 -8.7128,3.53553 -5.3727,0 -11.3935,-4.2989 -21.7872,-15.55635 -23.6218,-25.58493 -24.4858,-24.46564 -36.815,47.69294 -6.8242,39.93926 -7.2877,46.61514 -4.222,60.81118 1.894,8.77067 16.7017,74.74546 32.9061,146.61062 16.2043,71.8652 29.4624,132.0046 29.4624,133.6432 0,1.6386 -3.71,2.9792 -8.2444,2.9792 -6.5855,0 -10.2002,-2.7032 -17.9646,-13.435 z"
     id="path1428" />
  <path
     style="fill:#ff0000;stroke-width:2.82843"
     d="m 2164.4097,939.32573 c -45.4542,-65.95609 -83.341,-121.73674 -84.1929,-123.95694 -1.4111,-3.6771 72.0409,-413.77018 77.6499,-433.53113 1.3247,-4.6669 40.6284,-81.67083 87.3416,-171.11984 81.5615,-156.178538 85.2483,-162.634559 92.8746,-162.634559 h 7.9415 L 2380.656,188.0904 c 19.0474,77.00393 35.3348,142.87093 36.1943,146.37111 1.3701,5.57995 0.4689,6.36396 -7.3156,6.36396 -7.3314,0 -14.1815,-4.92848 -39.3128,-28.28427 -16.7389,-15.55635 -32.4095,-28.28428 -34.8236,-28.28428 -5.9384,0 -11.4459,8.40129 -38.0109,57.98276 -22.1206,41.28621 -22.9652,43.58694 -31.4279,85.61015 -6.3727,31.6449 -7.9822,45.06242 -6.0233,50.21465 1.4702,3.86703 10.1406,18.16334 19.2674,31.7696 9.1268,13.60627 18.0425,27.47464 19.8127,30.81863 2.6003,4.91227 0.5124,18.94862 -10.8712,73.0848 -7.7494,36.85268 -14.0897,67.52748 -14.0897,68.16626 0,0.63874 -3.548,1.16138 -7.8845,1.16138 -5.7185,0 -11.7111,-3.88505 -21.814,-14.14214 -16.143,-16.38949 -25.5089,-18.515 -28.0421,-6.36396 -8.4543,40.5526 -16.1039,94.7923 -14.87,105.43678 1.2234,10.55424 58.4071,270.09607 63.0793,286.30037 1.1566,4.0111 -0.3647,4.9498 -8.0217,4.9498 -9.2648,0 -11.0586,-2.3359 -92.0927,-119.92027 z"
     id="path1430" />
  <path
     style="fill:#ff0000;stroke-width:2.82843"
     d="m 1507.3688,716.19382 c -23.2717,-21.65121 -36.5867,-36.09049 -36.5867,-39.676 0,-3.10033 4.686,-14.03244 10.4132,-24.29356 11.4231,-20.46585 100.0019,-173.88918 100.8085,-174.60587 0.2757,-0.24489 11.3739,-2.69195 24.6627,-5.4379 l 24.1615,-4.99265 69.3344,47.83458 c 38.1338,26.30902 72.8897,50.45646 77.2352,53.661 l 7.9009,5.82642 -5.0967,74.16672 c -4.8376,70.39506 -5.3912,74.22773 -10.8871,75.36636 -3.1847,0.6598 -52.2473,6.36031 -109.028,12.6678 -56.7807,6.30749 -106.1836,11.93029 -109.7844,12.49516 -5.1195,0.80307 -14.5231,-6.39389 -43.1335,-33.01206 z m 135.3822,-75.47909 c 23.8016,-3.06597 44.4844,-6.32164 45.962,-7.23481 5.4958,-3.39663 2.3966,-12.18979 -6.7573,-19.17181 -32.1123,-24.49326 -54.246,-38.72319 -60.2314,-38.72319 -5.9155,0 -8.9572,4.28304 -22.1902,31.24606 -8.4343,17.18533 -14.6254,33.09523 -13.7581,35.35534 2.0263,5.28056 5.1921,5.19879 56.975,-1.47159 z"
     id="path1432" />
  <path
     style="fill:#ff0000;stroke-width:2.82843"
     d="m 1386.6226,787.66584 -45.8665,-48.13434 -0.748,-86.72051 -0.7479,-86.7205 -7.9998,-2.13853 c -4.3999,-1.17618 -13.3095,-1.23876 -19.799,-0.13907 -10.4071,1.76357 -11.9118,2.98328 -12.7544,10.33859 -0.5254,4.58653 3.1812,42.53906 8.2369,84.33896 7.634,63.11802 8.5405,76.40249 5.3482,78.37544 -5.2517,3.24573 -98.8044,26.43046 -100.3625,24.87236 -0.6859,-0.68586 0.3995,-56.53348 2.4121,-124.10578 l 3.6592,-122.85873 -10.7178,-38.18376 c -5.8948,-21.00107 -10.7495,-39.77476 -10.7881,-41.7193 -0.1797,-9.03423 16.8605,-2.64233 47.4523,17.79972 l 31.9285,21.33526 54.3196,-13.04924 c 29.8758,-7.17709 59.0057,-13.7519 64.7331,-14.6107 10.0257,-1.50331 10.4742,-1.20625 12.0443,7.97744 2.1676,12.67805 41.1819,368.82751 41.1819,375.93694 0,4.16751 -1.9407,5.54012 -7.8328,5.54012 -6.4545,0 -15.9038,-8.47001 -53.6993,-48.13437 z"
     id="path1434" />
  <path
     style="fill:#ff0000;stroke-width:2.82843"
     d="m 1087.3862,775.69614 c -19.1373,-27.6145 -29.1596,-38.89088 -34.5656,-38.89088 -2.1741,0 -16.1375,5.09117 -31.0297,11.31371 -28.25982,11.80798 -37.49824,13.72426 -37.4983,7.77818 -10e-6,-1.94455 10.93725,-58.902 24.305,-126.57212 l 24.3051,-123.03658 -0.3745,-50.91169 c -0.2059,-28.00142 -1.1235,-55.68465 -2.0391,-61.51828 -1.6171,-10.30406 -1.4183,-10.60661 6.9712,-10.60661 7.7145,0 10.6557,2.89719 27.5696,27.15666 22.0584,31.63834 34.4899,46.38245 39.1073,46.38245 1.8112,0 7.9758,-3.18198 13.6991,-7.07107 5.7233,-3.88909 13.4487,-7.07107 17.1675,-7.07107 6.3395,0 7.5843,2.97073 19.949,47.60921 7.2532,26.18507 13.1876,49.05078 13.1876,50.81269 0,1.76191 -12.0807,9.71599 -26.846,17.67574 -14.7653,7.95974 -27.5946,15.68352 -28.5095,17.16394 -1.45,2.34617 5.5291,178.5952 8.3592,211.09942 1.0379,11.92103 0.9693,12.02082 -8.27,12.02082 -8.4769,0 -10.7741,-2.10313 -25.4879,-23.33452 z"
     id="path1436" />
  <path
     style="fill:#ff0000;stroke-width:2.82843"
     d="m 929.15933,818.12254 c -0.66861,-1.94454 -3.86761,-14.35427 -7.10888,-27.57716 -10.16496,-41.46839 -13.92018,-50.91169 -20.2455,-50.91169 -3.11604,0 -16.39475,9.54594 -29.50825,21.2132 -16.09551,14.32041 -26.12828,21.21321 -30.87672,21.21321 -3.86869,0 -7.03398,-1.62576 -7.03398,-3.61278 0,-4.03917 13.351,-108.65934 24.08335,-188.72027 8.02674,-59.8776 1.8222,-49.38691 51.93237,-87.80775 21.23444,-16.28103 31.63023,-22.5009 37.60763,-22.5009 h 8.26095 l -1.65082,45.96194 c -2.82659,78.69789 -7.075,239.7982 -7.08595,268.70057 l -0.0104,27.57717 h -8.57405 c -4.71573,0 -9.12109,-1.59099 -9.7897,-3.53554 z"
     id="path1438" />
  <path
     style="fill:#ff0000;stroke-width:2.82843"
     d="m 866.42577,466.31605 c 0.91697,-5.65065 4.48797,-22.51515 7.93555,-37.47665 l 6.26833,-27.20275 36.98225,-35.95515 c 29.80348,-28.97576 38.57149,-35.97597 45.16943,-36.06244 l 8.18718,-0.1073 -1.80311,19.09188 c -0.99171,10.50054 -1.81216,28.83623 -1.82322,40.74597 l -0.0201,21.65409 -44.02531,32.79314 c -49.15668,36.61533 -59.8453,40.8477 -56.87099,22.51921 z"
     id="path1440" />
  <path
     style="fill:#ff0000;stroke-width:2.82843"
     d="m 404.46508,761.19569 c 0,-3.40599 3.81837,-34.53614 8.48528,-69.17813 4.6669,-34.642 8.48528,-70.99716 8.48528,-80.78925 0,-9.79209 0.80986,-29.2132 1.79969,-43.15802 l 1.7997,-25.35422 70.10004,-13.83183 70.10004,-13.83184 12.88988,11.88148 c 7.08944,6.53482 15.23809,11.88148 18.10812,11.88148 2.87002,0 16.6426,-5.56036 30.60573,-12.35636 36.65615,-17.84092 36.38036,-17.79684 47.92511,-7.66041 10.47812,9.19991 16.44319,10.16206 37.62975,6.06959 10.52158,-2.0324 16.41342,-6.42732 39.64858,-29.57531 21.15121,-21.07183 29.02903,-27.18818 35.01816,-27.18818 h 7.72758 v 145.43887 145.43886 l -17.67767,1.72017 c -15.83504,1.54084 -91.09753,7.19136 -96.01439,7.2085 -1.08306,0.003 -1.71946,-34.39497 -1.41422,-76.44166 0.465,-64.05434 -0.10816,-76.86196 -3.53526,-78.9986 -2.43731,-1.51955 -6.04603,-1.50337 -8.92993,0.0401 -5.57416,2.9832 -8.70874,19.11231 -17.96127,92.42042 -3.38317,26.80492 -6.91755,49.50256 -7.85419,50.43919 -2.39571,2.39571 -89.41441,13.93368 -91.2492,12.09888 -0.82793,-0.82794 -0.0926,-23.65776 1.63404,-50.73295 2.91345,-45.68474 2.1643,-80.67633 -1.95715,-91.41667 -2.53815,-6.6143 -12.12183,-5.44029 -15.37916,1.88396 -1.55665,3.50018 -6.50797,32.94792 -11.00295,65.43942 -4.51879,32.66366 -9.62222,59.97131 -11.41487,61.07924 -1.78321,1.10209 -24.48782,4.17263 -50.45471,6.82344 -25.96688,2.6508 -49.4399,5.27479 -52.16227,5.83111 -3.51487,0.71825 -4.94974,-0.78376 -4.94974,-5.18123 z"
     id="path1442" />
  <path
     style="fill:#ff0000;stroke-width:2.82843"
     d="m 56.233327,891.66165 c -0.184369,-0.38891 -5.054603,-29.98133 -10.822742,-65.76093 -8.533261,-52.93158 -9.84914,-66.10793 -7.061641,-70.71068 1.884237,-3.11127 14.352565,-24.2642 27.707396,-47.00651 l 24.281509,-41.34962 65.888911,-21.55788 c 36.23891,-11.85682 68.73377,-23.55047 72.2108,-25.98589 6.69354,-4.68832 8.83123,-19.19311 3.32974,-22.59319 -1.64568,-1.0171 -33.56656,-3.52674 -70.93528,-5.57698 -37.36872,-2.05024 -68.605064,-4.38966 -69.414105,-5.19871 -1.39603,-1.39602 2.749078,-128.11247 6.42148,-196.30543 l 1.713597,-31.8198 h 32.867248 c 31.96102,0 34.92669,-0.56054 107.55967,-20.32971 l 74.69245,-20.32971 31.46133,-26.28849 c 22.77223,-19.02802 33.60955,-26.30252 39.2395,-26.33933 6.904,-0.0451 7.77606,0.98227 7.7594,9.14153 -0.0342,16.79418 -11.03378,155.53805 -12.44262,156.94688 -0.76164,0.76166 -27.22545,6.91571 -58.80843,13.67567 -78.15713,16.7286 -78.63681,16.8833 -78.63681,25.35957 v 6.95753 h 64.94741 64.9474 l -1.3209,17.67767 c -0.72649,9.72272 -3.28771,57.13423 -5.69162,105.35891 -2.40391,48.22468 -4.86071,89.16034 -5.45957,90.96812 -0.59886,1.80779 -34.58253,14.32477 -75.51924,27.81552 -40.93671,13.49075 -81.56475,27.07031 -90.28452,30.17686 -15.73096,5.60436 -16.26728,6.18483 -69.03171,74.71496 -47.385404,61.54389 -54.053628,69.06674 -61.220508,69.06674 -4.423612,0 -8.193777,-0.31819 -8.378145,-0.7071 z"
     id="path1444" />
  <path
     style="fill:#ff0000;stroke-width:0.25"
     d="m 2270.699,1092.4375 c -0.333,-0.3849 -14.2812,-20.5187 -37.4533,-54.0625 -4.0369,-5.8438 -9.2124,-13.2688 -11.5012,-16.5 -5.7136,-8.0661 -17.0456,-24.30339 -26.7821,-38.375 -21.3638,-30.8761 -54.7124,-79.33757 -54.7124,-79.50698 0,-0.0649 20.3041,-0.11802 45.1202,-0.11802 h 45.1203 l 0.1317,0.5625 c 0.073,0.30937 2.88,12.99375 6.239,28.1875 13.6619,61.79705 24.6146,110.2047 27.0241,119.4387 0.4756,1.8226 0.8647,3.8813 0.8647,4.575 0,0.7025 1.3233,7.1526 2.9873,14.5612 4.2478,18.9121 4.7627,21.2327 4.7627,21.4668 0,0.3906 -1.4213,0.2097 -1.801,-0.2292 z"
     id="path1446" />
  <path
     style="fill:#ff0000;stroke-width:0.0220971"
     d="m 2272.8741,1095.5128 c -0.072,-0.1003 -0.5726,-0.8137 -1.1135,-1.5854 -0.5408,-0.7717 -1.0298,-1.4627 -1.0865,-1.5357 -0.3215,-0.4137 -4.516,-6.4407 -10.7343,-15.4239 -1.0264,-1.4827 -1.8761,-2.7083 -1.8882,-2.7234 -0.018,-0.022 1.019,-0.028 5.168,-0.028 h 5.19 l 0.7822,3.4858 c 2.4631,10.9774 3.1227,13.9526 3.2518,14.6669 0.026,0.1458 0.1371,0.6778 0.2461,1.1822 0.109,0.5044 0.252,1.1706 0.3178,1.4805 0.066,0.3099 0.1247,0.5858 0.1311,0.6132 0.01,0.044 0,0.05 -0.061,0.05 -0.066,0 -0.085,-0.017 -0.2032,-0.1823 z"
     id="path1448" />
  <path
     style="fill:#ff0000;stroke-width:0.00390625"
     d="m 2273.1142,1095.8389 c -0.023,-0.032 -0.066,-0.09 -0.095,-0.1299 -0.029,-0.04 -0.067,-0.092 -0.086,-0.1172 -0.062,-0.083 -0.1615,-0.2236 -0.8184,-1.1602 -0.6773,-0.9658 -1.0197,-1.4522 -1.2331,-1.7519 l -0.072,-0.1016 0.8379,-10e-4 c 0.4609,-5e-4 0.8388,-10e-5 0.8399,10e-4 0,0 0.01,0.024 0.01,0.051 0.01,0.06 0.055,0.2818 0.1953,0.9358 0.3717,1.7327 0.4487,2.0937 0.4486,2.105 0,0.01 0.01,0.053 0.019,0.1075 0.01,0.054 0.02,0.1028 0.021,0.1087 0,0.01 8e-4,0.011 -0.011,0.011 -0.012,0 -0.016,0 -0.055,-0.058 z"
     id="path1450" />
  <path
     style="fill:#ff0000;stroke-width:0.0220971"
     d="m 2087.0472,826.2377 c -1.6361,-2.38449 -3.8914,-5.68072 -4.993,-7.29756 -1.8775,-2.75564 -1.9683,-2.8984 -2.0878,-3.28097 -0.231,-0.73989 -0.2406,-1.97882 -0.032,-4.1768 0.2434,-2.56988 0.7965,-6.45045 1.8354,-12.87708 l 0.072,-0.44746 h 21.4077 21.4076 v 14.73875 14.73876 h -18.3254 -18.3255 z"
     id="path1452" />
  <path
     style="fill:#ff0000;stroke-width:0.0220971"
     d="m 2079.7881,813.55397 c 0.01,-0.0638 0.016,-0.26019 0.023,-0.43642 0.1065,-2.7927 1.1675,-10.04991 3.2596,-22.29596 0.5251,-3.07353 1.1243,-6.53642 1.1403,-6.59045 0.011,-0.0368 0.9944,-0.0387 20.251,-0.0387 h 20.2394 v 14.73875 14.73876 h -22.4619 -22.4619 z"
     id="path1454" />
  <path
     style="fill:#ff0000;stroke-width:0.0441942"
     d="m 2080.4849,806.94327 c 0,-0.0354 0.1202,-0.87569 0.2671,-1.86721 1.256,-8.47901 3.9953,-24.29812 9.0159,-52.06662 0.4849,-2.68204 0.8817,-4.89451 0.8817,-4.9166 0,-0.024 14.3061,-0.0402 35.6647,-0.0402 h 35.6647 v 29.47752 29.47751 h -40.747 c -35.6708,0 -40.7471,-0.008 -40.7471,-0.0644 z"
     id="path1456" />
  <path
     style="fill:#ff0000;stroke-width:0.0441942"
     d="m 2087.4676,765.83816 c 0,-0.21032 4.4129,-24.54667 9.4157,-51.92548 0.6795,-3.71894 1.2457,-6.80645 1.2582,-6.86114 l 0.023,-0.0994 h 33.8961 33.8961 v 29.47751 29.47752 h -39.2445 c -35.5321,0 -39.2444,-0.007 -39.2444,-0.069 z"
     id="path1458" />
  <path
     style="fill:#ff0000;stroke-width:0.015625"
     d="m 2096.8516,714.09766 c 0,-0.0193 0.2159,-1.17071 0.4696,-2.5586 0.2537,-1.38789 0.5528,-3.01914 0.6647,-3.625 0.2718,-1.47204 2.3655,-12.89808 2.5402,-13.86325 l 0.138,-0.7617 12.707,-2e-5 12.707,-3e-5 v 10.42188 10.42187 h -14.6175 -14.6174 z"
     id="path1460" />
  <path
     style="fill:#ff0000;stroke-width:0.00390625"
     d="m 2093.1651,835.1416 c -0.01,-0.008 -3.5657,-5.18985 -3.5727,-5.20117 0,-0.004 0.7742,-0.005 3.8781,-0.005 h 3.8811 v 2.60547 2.60546 h -2.0914 c -1.6684,0 -2.0921,-9.8e-4 -2.0951,-0.005 z"
     id="path1462" />
  <path
     style="fill:#ff0000;stroke-width:0.0110485"
     d="m 2096.7285,840.36603 c -0.018,-0.0258 -0.3394,-0.50188 -0.7151,-1.0579 -0.7752,-1.1476 -0.8339,-1.23343 -2.3293,-3.40848 -1.5951,-2.32004 -4.4495,-6.47636 -6.319,-9.20109 -0.3511,-0.51173 -0.6535,-0.95155 -0.6719,-0.97738 l -0.034,-0.047 h 10.5078 10.5079 v 7.36938 7.36938 h -5.4575 -5.4574 z"
     id="path1464" />
  <path
     style="fill:#ff0000;stroke-width:0.707107"
     d="m 2245.446,1056.2833 c -15.0403,-21.7051 -35.8519,-51.7144 -46.2481,-66.68736 -17.2175,-24.79733 -39.2837,-56.84804 -73.9977,-107.48023 -7.066,-10.30609 -20.2164,-29.46829 -29.2232,-42.58268 -13.8457,-20.16015 -16.376,-24.23405 -16.376,-26.36647 0,-3.94425 5.8002,-37.25751 21.4825,-123.3839 7.9666,-43.75223 20.2221,-111.21022 27.2345,-149.90663 7.0125,-38.69642 15.4661,-84.79762 18.786,-102.44711 3.3199,-17.64949 6.0361,-32.20705 6.0361,-32.35014 0,-0.14308 26.445,-0.26015 58.7666,-0.26015 h 58.7665 l -0.4606,1.83516 c -0.2533,1.00933 -2.1925,10.47572 -4.3093,21.03642 -7.0263,35.0548 -8.1556,46.40938 -5.2001,52.28669 2.831,5.62973 8.6802,15.04097 21.8464,35.15039 7.257,11.0839 14.5552,22.45871 16.2183,25.27735 l 3.0238,5.12482 -4.7052,23.51301 c -2.5878,12.93215 -8.6709,42.60489 -13.518,65.93942 -7.5792,36.48756 -10.1294,48.21211 -12.9057,59.3355 -0.5043,2.0204 -0.7667,1.79008 -13.6961,-12.02081 -15.905,-16.98931 -18.8057,-19.81077 -24.2275,-23.56535 -7.291,-5.04899 -12.1068,-5.30444 -14.7772,-0.78383 -3.7597,6.36468 -16.7365,88.10404 -16.7382,105.43142 -5e-4,5.59513 2.1408,16.39821 15.1958,76.66403 7.8622,36.29444 32.1919,145.44031 44.8431,201.17185 6.5088,28.6726 12.0092,54.0523 11.7669,54.2946 -0.1308,0.1307 -12.5434,-17.521 -27.5836,-39.226 z"
     id="path1466" />
  <path
     style="fill:#ff0000;stroke-width:0.0220971"
     d="m 2270.0216,695.80045 c -0.072,-0.0628 -0.5889,-0.56769 -1.148,-1.122 -0.559,-0.55431 -1.2742,-1.25618 -1.5892,-1.5597 -1.151,-1.10903 -3.3303,-3.37901 -7.0956,-7.3909 -2.8427,-3.02889 -5.7698,-6.15649 -5.7854,-6.18176 -0.014,-0.022 2.0181,-0.0275 10.0351,-0.0275 h 10.0522 l -0.074,0.38117 c -0.176,0.90278 -0.3153,1.654 -0.3391,1.82854 -0.043,0.31582 -0.084,0.36871 -0.4024,0.51989 -0.094,0.0445 -0.1751,0.0973 -0.181,0.11745 -0.01,0.0201 -0.1559,0.67301 -0.3333,1.45083 -1.0552,4.62549 -2.5056,10.63732 -2.6587,11.01956 -0.036,0.0905 -0.097,0.29312 -0.1351,0.4503 -0.118,0.48693 -0.1602,0.6283 -0.1874,0.6283 -0.014,0 -0.086,-0.0514 -0.1578,-0.11416 z"
     id="path1468" />
  <path
     style="fill:#ff0000;stroke-width:0.25"
     d="m 1808.75,782.93757 v -20.68745 l 2.0175,-11.12505 c 2.6104,-14.3939 14.1626,-77.71004 34.744,-190.42651 9.0687,-49.66579 16.4885,-90.36267 16.4885,-90.4375 0,-0.0748 26.3403,-0.13606 58.534,-0.13606 h 58.534 l -0.1562,1.0625 c -0.086,0.58437 -0.4952,3.36875 -0.9096,6.1875 -1.0444,7.10346 -1.1697,9.397 -0.6527,11.94814 1.0947,5.40266 4.2056,11.9252 11.2329,23.55186 2.9519,4.88391 9.3931,14.85488 22.2869,34.5 l 9.4348,14.375 -5.1763,25 c -15.0024,72.45769 -22.2703,106.65546 -23.2602,109.44692 -0.2054,0.57919 -0.9931,3.91782 -1.7503,7.41916 -0.7573,3.50135 -1.496,6.80839 -1.6416,7.34899 l -0.2646,0.9829 -1.752,-1.72399 c -0.9636,-0.94819 -4.0668,-4.19898 -6.8961,-7.22398 -2.8293,-3.025 -7.7511,-8.0875 -10.9374,-11.25 -3.1863,-3.1625 -7.6812,-7.775 -9.9887,-10.25 -8.4757,-9.09112 -12.369,-12.11666 -15.5991,-12.12256 -2.4737,-0.005 -4.0238,1.27152 -5.7927,4.76866 -3.3141,6.55201 -6.1032,19.20626 -12.4761,56.6039 -4.68,27.46395 -5.8779,36.1384 -6.1794,44.75 -0.2447,6.98857 0.2849,11.1824 2.8652,22.6875 l 1.2195,5.4375 h -56.9621 -56.9622 z"
     id="path1470" />
  <path
     style="fill:#ff0000;stroke-width:0.5"
     d="m 1817.7964,712.375 c 0.1115,-0.48125 10.0991,-55.1 22.1947,-121.375 12.0955,-66.275 25.1162,-137.53328 28.9349,-158.35173 l 6.943,-37.85172 35.8932,-68.89828 C 1974.4653,205.5373 1994.7184,166.7482 2010.3923,137 c 8.4039,-15.95 22.4973,-42.750534 31.3187,-59.556742 8.8214,-16.806207 16.264,-30.600901 16.539,-30.654874 0.275,-0.05397 1.5028,3.684061 2.7284,8.306742 1.2256,4.62268 2.4962,8.629874 2.8234,8.904874 0.3273,0.275 4.6873,17.15 9.689,37.5 5.0017,20.35 15.0495,61.1875 22.3285,90.75 21.3297,86.62759 27.4227,111.70253 41.7057,171.63543 1.3612,5.712 2.475,10.74155 2.475,11.1768 0,1.01074 -0.1058,0.91838 -19.25,-16.79907 -40.6525,-37.62292 -52.7382,-48.26326 -61.4078,-54.06397 -3.5389,-2.36788 -4.8004,-2.94919 -6.3998,-2.94919 -6.3789,0 -10.0131,5.44608 -36.2017,54.25 -20.2214,37.6836 -23.3547,45.35689 -29.1963,71.5 -4.5715,20.4591 -8.1898,39.87905 -9.8507,52.87113 -0.8431,6.59519 -0.8421,7.02506 0.025,10.70399 1.547,6.56211 7.9488,18.21178 20.7031,37.67488 18.4977,28.22745 21.747,33.32775 21.7007,34.0628 -0.028,0.447 -1.6573,8.547 -3.6204,18 -16.6826,80.3342 -21.583,103.4455 -24.6885,116.4372 -0.9532,3.9875 -2.1113,8.99375 -2.5736,11.125 -0.4623,2.13125 -1.0121,3.875 -1.2216,3.875 -0.2096,0 -3.4863,-3.31875 -7.2815,-7.375 -3.7953,-4.05625 -12.4583,-13.0248 -19.2512,-19.93015 -9.8848,-10.0484 -12.908,-12.8278 -15.1416,-13.9206 -2.0123,-0.98455 -3.1971,-1.2762 -4.2473,-1.04555 -3.0119,0.6615 -5.4331,4.68235 -7.8411,13.0213 -1.1364,3.9358 -5.0653,22.65405 -6.0082,28.625 l -0.3356,2.125 h -55.1592 c -52.2766,0 -55.1487,-0.0457 -54.9565,-0.875 z"
     id="path1472" />
  <path
     style="fill:#ff0000;stroke-width:0.5"
     d="m 2097,712.78865 c 0,-0.2561 1.4557,-8.41335 3.2349,-18.12715 1.7792,-9.71385 7.0568,-38.924 11.7282,-64.9115 23.8514,-132.69056 36.5302,-201.56162 43.0975,-234.10487 l 3.5022,-17.35487 8.1433,-15.64513 c 4.4788,-8.60482 16.3078,-31.50763 26.2866,-50.89513 31.055,-60.33581 78.893,-152.08419 106.4967,-204.25 5.9662,-11.275 15.6492,-29.66875 21.5179,-40.875 l 10.6702,-20.375 6.5363,0.0057 6.5362,0.0057 0.8494,1.869263 c 0.866,1.905697 71.0506,285.518507 71.671,289.619267 0.1872,1.2375 1.328,6.34766 2.535,11.35592 1.207,5.00826 2.1946,9.47532 2.1946,9.9268 0,1.04684 0.011,1.05665 -19.25,-16.77116 -46.7541,-43.27462 -63.924,-58.01156 -67.5888,-58.01156 -5.1513,0 -10.9854,8.40386 -29.504,42.5 -12.6762,23.339 -17.2593,32.05905 -22.3374,42.5 -7.6915,15.81432 -10.0031,22.98526 -14.7505,45.75775 -6.5126,31.24051 -9.1449,47.17043 -9.2523,55.99225 -0.065,5.34511 -0.016,5.6056 1.7278,9.25 2.4789,5.17925 7.1857,12.78357 20.8898,33.75 13.7655,21.06035 19.5671,30.5427 19.5611,31.97165 -0.011,2.6274 -26.1933,130.97415 -27.6983,135.77835 -0.3876,1.2375 -1.3101,4.89375 -2.05,8.125 -0.7398,3.23125 -1.5363,5.875 -1.77,5.875 -0.2337,0 -6.5901,-6.58125 -14.1254,-14.625 -13.564,-14.4793 -17.7545,-18.55565 -22.602,-21.9861 -7.1421,-5.0543 -12.3309,-5.6423 -14.9201,-1.6907 -1.6954,2.58755 -4.8509,17.5158 -8.9944,42.5518 l -2.1515,13 -55.092,0.1272 c -33.7817,0.078 -55.092,-0.053 -55.092,-0.33855 z"
     id="path1474" />
  <path
     style="fill:#ff0000;stroke-width:0.5"
     d="m 2135.0784,501.625 c 8.5788,-46.94034 16.2308,-87.69601 19.9564,-106.28989 3.1768,-15.8553 3.5886,-17.43841 5.3971,-20.75 1.9131,-3.50318 12.572,-24.12057 39.0762,-75.58511 25.4756,-49.46724 71.3299,-137.40714 94.3785,-181 5.0889,-9.625 14.8681,-28.1875 21.7315,-41.25 22.5661,-42.94818 24.5166,-46.565736 24.8861,-46.155843 0.2013,0.223213 1.3008,4.005843 2.4433,8.405843 1.1426,4.4 2.3018,8.398656 2.576,8.885901 0.5346,0.949879 5.2563,19.726878 23.792,94.614099 37.4942,151.48253 46.8491,189.50264 47.7339,194 0.541,2.75 1.8859,8.80379 2.9888,13.45286 1.1028,4.64907 1.9391,8.77493 1.8585,9.16858 -0.088,0.42823 -4.9667,-3.74066 -12.1467,-10.37906 -45.5293,-42.09477 -64.8809,-59.16051 -71.5,-63.05419 -4.0845,-2.40273 -6.6347,-1.24016 -11.4619,5.22525 -5.3228,7.12919 -19.8108,32.80059 -36.4504,64.58656 -14.26,27.24037 -16.5383,33.87341 -23.5279,68.5 -5.6902,28.18888 -7.3098,38.71462 -7.3098,47.50495 v 5.72058 l 2.1692,4.14702 c 2.8513,5.4509 9.0172,15.34169 20.7375,33.26519 5.2645,8.05077 9.8095,15.08202 10.1001,15.62501 0.5251,0.98115 0.022,0.98725 -81.1571,0.98725 h -81.6856 z"
     id="path1476" />
  <path
     style="fill:#ff0000;stroke-width:0.0441942"
     d="m 2042.284,76.378581 c 0.4697,-0.918035 4.8779,-9.253505 7.2978,-13.799631 0.8021,-1.507021 2.438,-4.599509 3.6352,-6.872194 3.5514,-6.741835 4.9704,-9.410961 5.1088,-9.60936 0.057,-0.08093 0.063,-0.07711 0.1252,0.07125 0.1012,0.242105 0.4553,1.468089 1.019,3.527706 0.2828,1.033039 0.6311,2.285944 0.774,2.784233 0.143,0.49829 0.4782,1.71142 0.745,2.695845 1.0726,3.958025 1.9864,6.972897 2.4713,8.153825 l 0.127,0.309359 0.3359,0.01285 0.3359,0.01285 0.091,0.384899 c 0.05,0.211694 0.7572,3.08832 1.5721,6.392503 0.8149,3.304182 1.4816,6.023781 1.4816,6.043553 0,0.01977 -5.6684,0.03595 -12.5964,0.03595 h -12.5965 z"
     id="path1478" />
  <path
     style="fill:#ff0000;stroke-width:0.0441942"
     d="m 2320.4593,67.575234 c 0,-0.01776 8.464,-16.105915 10.4176,-19.801332 1.927,-3.645334 3.8728,-7.296611 5.7348,-10.761281 0.6857,-1.276107 1.6801,-3.135577 2.2097,-4.132156 1.3281,-2.499213 1.5261,-2.855231 1.572,-2.826874 0.1084,0.067 1.4237,4.693017 2.5377,8.92567 1.2362,4.69658 2.1354,7.820611 2.5187,8.750447 l 0.1458,0.353553 0.2145,0.0221 0.2146,0.0221 2.3961,9.678524 c 1.3178,5.323188 2.3969,9.703384 2.398,9.733767 0,0.04409 -3.0627,0.05524 -15.1788,0.05524 -8.3494,0 -15.1807,-0.0089 -15.1807,-0.01976 z"
     id="path1480" />
  <path
     style="fill:#ff0000;stroke-width:0.0883883"
     d="m 1531.4165,737.94534 c -0.559,-0.51492 -2.1103,-1.8958 -3.4471,-3.06862 -5.5871,-4.9014 -11.0217,-9.82736 -18.7384,-16.98442 -9.0444,-8.38854 -14.1712,-13.32076 -22.0529,-21.21606 -3.3057,-3.31142 -8.1184,-8.05248 -10.695,-10.53569 -2.5765,-2.48321 -5.6099,-5.44963 -6.741,-6.59204 -2.3309,-2.3544 -2.1532,-1.99337 -1.5609,-3.17005 0.5412,-1.07521 3.2776,-6.05344 5.677,-10.32807 1.2416,-2.21192 2.6925,-4.89671 3.2243,-5.96621 1.8309,-3.68224 3.0718,-5.98392 6.3851,-11.84404 4.1508,-7.34137 15.4085,-27.00465 15.5483,-27.1574 0.081,-0.0883 9.5522,-0.1061 46.9994,-0.0884 l 46.8983,0.0222 -0.8301,1.93651 c -3.9379,9.1869 -6.3994,16.33652 -6.3932,18.56959 0,0.87406 0.5823,2.03769 1.4214,2.85214 2.0475,1.98732 7.443,2.08498 22.7495,0.41179 4.7371,-0.51783 19.2101,-2.25944 20.5724,-2.47558 l 0.3314,-0.0526 v 48.312 48.312 h -49.166 -49.166 l -1.0165,-0.93624 z"
     id="path1490" />
  <path
     style="fill:#ff0000;stroke-width:0.0883883"
     d="m 1542.7719,748.24257 c -1.7912,-1.53304 -4.7818,-4.24239 -11.8415,-10.7281 -0.4862,-0.44661 -2.0573,-1.84153 -3.4914,-3.09984 -5.16,-4.52749 -9.5532,-8.50412 -16.8821,-15.28147 -9.4803,-8.76677 -14.8152,-13.88326 -22.7188,-21.78891 -3.0886,-3.08937 -8.0405,-7.96873 -11.0043,-10.843 -2.9638,-2.87428 -6.2345,-6.08216 -7.2682,-7.12862 -1.7477,-1.76939 -1.8735,-1.91805 -1.7958,-2.12257 0.256,-0.67321 2.0581,-4.00166 5.5612,-10.27159 l 2.1236,-3.8007 89.455,-0.0221 89.4551,-0.0221 v 37.12315 c 0,31.64579 -0.018,37.12315 -0.1229,37.12315 -0.1328,0 -30.7309,3.41062 -39.6519,4.41979 -2.9897,0.33821 -11.064,1.25085 -17.9428,2.02808 -24.6665,2.78705 -40.8735,4.66213 -44.8129,5.18466 -1.8667,0.2476 -2.8892,0.2467 -3.7982,-0.003 -0.441,-0.12129 -0.6271,-0.11767 -2.1059,0.0409 -0.8922,0.0957 -1.7098,0.17396 -1.817,0.17396 -0.1202,0 -0.6335,-0.37556 -1.3412,-0.98126 z"
     id="path1492" />
  <path
     style="fill:#ff0000;stroke-width:0.176777"
     d="m 1543.5054,748.8806 c -0.7377,-0.56039 -2.8634,-2.4616 -8.465,-7.57115 -4.3352,-3.95443 -14.012,-12.63826 -14.6933,-13.18573 -0.2072,-0.16642 -0.2443,-11.10762 -0.2443,-71.93964 v -71.74337 l 1.1932,-2.08365 1.1933,-2.08365 45.6673,-0.002 c 25.117,-10e-4 45.6404,0.0577 45.6075,0.13063 -0.033,0.0729 -0.5952,0.94388 -1.2496,1.93547 -2.6301,3.98523 -5.9842,10.2324 -11.4544,21.3343 -4.1694,8.46211 -6.1545,12.72452 -8.6952,18.6705 -3.5564,8.32326 -6.0357,15.19511 -6.5144,18.05641 -0.1996,1.19235 -0.1915,1.44173 0.069,2.12351 1.0068,2.63621 2.9331,3.37273 8.7832,3.35832 6.0271,-0.0149 14.5809,-0.90126 42.1612,-4.36902 23.8053,-2.99312 46.7223,-6.45363 50.8274,-7.675 1.4049,-0.41799 2.3822,-1.21069 3.0866,-2.50357 0.4273,-0.78439 0.5286,-1.20687 0.5887,-2.4566 0.092,-1.91053 -0.2351,-3.27503 -1.2905,-5.385 -1.8089,-3.6163 -4.7872,-6.71769 -10.8742,-11.3235 -18.7394,-14.17952 -35.3256,-25.70625 -44.78,-31.1202 l -1.2047,-0.68981 75.7895,-0.0444 c 41.6842,-0.0244 75.8047,-0.0244 75.8233,0 0.019,0.0244 -0.5479,8.47665 -1.259,18.78273 -0.711,10.30608 -1.8965,27.52855 -2.6345,38.27215 -3.0679,44.66488 -4.1788,59.28522 -5.218,68.67775 -0.1936,1.75009 -0.5498,5.72756 -0.7914,8.83883 -0.2416,3.11127 -0.4894,6.18671 -0.5506,6.8343 l -0.1113,1.17744 -1.2524,0.12578 c -0.6889,0.0692 -1.7356,0.3076 -2.326,0.52984 -1.2059,0.45391 -2.5342,0.6625 -10.6095,1.66612 -17.1043,2.12575 -51.0274,6.00332 -130.7264,14.94267 -37.6564,4.22369 -68.0505,7.69376 -75.3069,8.59775 -3.7729,0.47002 -4.4791,0.51384 -5.4801,0.34005 -0.8244,-0.14314 -1.5985,-0.14784 -2.74,-0.0166 -0.875,0.10057 -1.6399,0.18351 -1.6997,0.18431 -0.06,8.8e-4 -0.3383,-0.17289 -0.6187,-0.38597 z"
     id="path1494" />
  <path
     style="fill:#ff0000;stroke-width:0.176777"
     d="m 1443.1043,845.39035 c -3.7909,-3.81617 -9.4322,-9.56362 -12.5363,-12.77212 -3.1042,-3.20849 -10.504,-10.72592 -16.444,-16.7054 -12.9387,-13.02455 -13.4677,-13.57333 -46.8447,-48.59507 -22.8741,-24.00135 -26.3541,-27.72217 -26.4495,-28.27961 -0.06,-0.35304 -0.16,-9.31279 -0.2214,-19.91056 -0.061,-10.59776 -0.1638,-22.5103 -0.2274,-26.47231 l -0.1158,-7.20365 h 46.247 46.2469 l 0.097,0.57453 c 0.1829,1.08272 8.3794,77.12965 11.3182,105.00994 1.8075,17.14769 3.6571,35.44287 3.8911,38.48854 0.063,0.82643 0.5869,6.02006 1.163,11.5414 1.0706,10.25948 1.1515,11.26279 0.9079,11.26279 -0.077,0 -3.2412,-3.12231 -7.032,-6.93848 z"
     id="path1496" />
  <path
     style="fill:#ff0000;stroke-width:0.176777"
     d="m 1211.5163,760.03457 c 0.064,-1.10886 0.1924,-7.10727 0.2844,-13.32981 0.1713,-11.57969 0.2347,-15.09288 0.5398,-29.87526 0.3997,-19.36573 1.0971,-46.606 1.8534,-72.39006 0.2409,-8.2157 0.4382,-15.39504 0.4384,-15.9541 l 4e-4,-1.01646 h 44.3709 c 41.1195,0 44.371,0.0214 44.371,0.29174 0,0.47971 1.5072,13.66312 3.0184,26.40154 4.1836,35.26475 5.0477,42.82655 5.9995,52.50268 0.7508,7.63272 1.2653,12.3765 2.1858,20.15254 0.4316,3.64602 0.8387,7.11888 0.9047,7.71748 l 0.12,1.08835 -0.7667,0.44652 c -4.7708,2.77835 -70.248,19.57587 -96.8449,24.84457 -2.4793,0.49114 -4.9768,0.94774 -5.55,1.01467 l -1.0421,0.1217 z"
     id="path1498" />
  <path
     style="fill:#ff0000;stroke-width:0.176777"
     d="m 1215.2243,608.95152 c 0.061,-1.33687 0.7203,-23.07378 1.465,-48.30423 l 1.354,-45.87355 -5.852,-20.85965 c -10.4231,-37.15277 -13.8045,-49.79412 -15.4086,-57.60411 -0.3271,-1.59301 -4.1487,-15.28638 -4.5827,-16.42114 -0.1023,-0.26737 -0.1377,-0.48613 -0.079,-0.48613 0.2642,0 6.3905,3.95865 20.4784,13.23257 6.1254,4.03222 12.1711,7.96756 13.4351,8.7452 1.2639,0.77764 4.1277,2.53461 6.3639,3.90439 2.2363,1.36977 12.6391,8.19818 23.1175,15.17423 l 19.0516,12.68372 h 2.5577 2.5578 l 22.85,-5.49352 c 37.6739,-9.05746 46.6826,-11.19396 61.8025,-14.65707 10.8941,-2.49522 18.2911,-4.12797 24.4219,-5.39073 2.6738,-0.5507 7.3989,-1.55621 10.5004,-2.23445 3.1015,-0.67825 5.7328,-1.19723 5.8472,-1.1533 0.1243,0.0477 0.3002,0.92422 0.4364,2.1743 0.1254,1.15193 0.4528,3.16834 0.7275,4.48091 0.8235,3.93507 1.5989,10.13605 5.0178,40.12831 2.6009,22.8157 12.0346,107.5223 13.294,119.36846 l 0.108,1.01647 h -42.5122 -42.5123 l -0.1152,-17.81025 c -0.063,-9.79564 -0.1652,-20.0035 -0.2262,-22.68413 l -0.111,-4.87387 -4.4827,-1.18928 c -2.4655,-0.6541 -5.3384,-1.30117 -6.3841,-1.43793 -5.8444,-0.76431 -12.9455,-0.4388 -19.6674,0.90154 -4.4296,0.88326 -6.4045,1.6972 -7.7878,3.20969 -1.0574,1.15621 -1.5164,2.32975 -1.9877,5.08174 -0.3432,2.00444 -0.3517,2.34742 -0.1536,6.22484 0.2938,5.75018 1.6766,21.71978 2.599,30.01439 0.1406,1.26395 0.2564,2.35776 0.2573,2.43068 9e-4,0.0729 -19.4593,0.13258 -43.245,0.13258 h -43.2467 z"
     id="path1500" />
  <path
     style="fill:#ff0000;stroke-width:0.176777"
     d="m 1015.8162,592.95323 c 0.053,-0.21876 3.9289,-19.80783 8.6142,-43.53126 l 8.5187,-43.13352 -0.203,-28.19588 c -0.3811,-52.94971 -1.0293,-75.95017 -2.4079,-85.44467 -0.8207,-5.65185 -0.7708,-7.23342 0.2605,-8.2647 l 0.4921,-0.49219 -0.1575,-6.50675 c -0.087,-3.57871 -0.1356,-8.17308 -0.1088,-10.20971 l 0.049,-3.70295 2.0506,2.73068 c 2.6249,3.49546 6.9294,9.46181 12.9383,17.93348 2.6206,3.69463 5.3385,7.43346 6.0398,8.3085 3.1398,3.91791 5.9971,7.84431 13.4431,18.47317 11.2354,16.03802 18.5926,25.93414 25.0973,33.75829 5.8465,7.03246 10.4733,11.34481 12.9012,12.0246 0.6879,0.19259 0.9323,0.17441 1.9951,-0.14842 2.4498,-0.74408 6.6507,-3.00147 11.89,-6.38919 1.6043,-1.03729 3.4737,-2.19308 4.1543,-2.56841 0.6806,-0.37533 2.8682,-1.76787 4.8613,-3.09453 6.6679,-4.4382 12.3436,-7.94972 12.8491,-7.94972 0.1051,0 0.2318,0.13921 0.2815,0.30936 0.05,0.17014 1.2873,4.44593 2.7502,9.50174 1.4628,5.05582 2.8668,9.78901 3.1198,10.51822 2.5942,7.47693 14.2542,49.4458 20.1362,72.47844 1.3724,5.37389 3.1129,12.75013 3.1129,13.19256 0,0.33781 -2.6566,2.0471 -7.2479,4.6635 -2.0904,1.19121 -4.9051,2.83801 -6.255,3.65956 -3.7084,2.25701 -8.7425,5.12269 -15.3117,8.71641 -9.9452,5.4405 -16.9891,9.52033 -22.3424,12.94068 -3.0991,1.98007 -4.4996,3.05585 -4.6217,3.55013 -0.053,0.21348 -0.073,4.18668 -0.045,8.82929 l 0.051,8.44116 -48.5002,-7e-5 -48.5001,-5e-5 z"
     id="path1502" />
  <path
     style="fill:#ff0000;stroke-width:0.176777"
     d="m 858.60441,589.12891 c 0,-0.0859 0.15684,-1.33882 0.34853,-2.78424 0.19169,-1.44541 0.90853,-7.04302 1.59297,-12.43913 1.8629,-14.68708 2.48933,-18.83443 3.60867,-23.89157 0.3303,-1.49233 0.89552,-4.82139 1.25604,-7.39791 l 0.65548,-4.68458 0.90954,-0.94257 c 0.50025,-0.51841 2.10279,-1.94741 3.56119,-3.17555 1.45841,-1.22815 3.6858,-3.203 4.94975,-4.38856 4.13843,-3.88176 7.88194,-6.94139 16.44023,-13.43683 2.81959,-2.13997 9.7404,-7.39282 15.37958,-11.673 5.63917,-4.28018 12.04291,-9.08234 14.23052,-10.67147 2.18761,-1.58914 7.27878,-5.36469 11.31371,-8.39013 12.35559,-9.26437 21.53071,-15.82286 22.13567,-15.82286 0.12991,0 0.14742,1.53489 0.0575,5.03814 l -0.12935,5.03813 h 0.63536 c 0.59923,0 0.63535,0.0327 0.63535,0.57574 0,0.31665 -0.4365,12.74626 -0.97,27.62135 -1.09867,30.63331 -1.68867,48.17046 -2.2064,65.58295 -0.19658,6.61145 -0.40543,12.91575 -0.4641,14.00955 l -0.10669,1.98874 h -46.91677 c -27.04073,0 -46.91677,-0.0662 -46.91677,-0.1562 z"
     id="path1504" />
  <path
     style="fill:#ff0000;stroke-width:0.176777"
     d="m 861.49844,488.03626 c 0.0492,-0.17015 0.24996,-1.06762 0.44617,-1.99439 0.19621,-0.92677 1.27952,-5.73951 2.40737,-10.69499 1.12784,-4.95548 2.63733,-11.95329 3.35442,-15.5507 2.14302,-10.75087 4.69334,-22.31781 9.73436,-44.14998 l 2.43885,-10.5624 h 43.72123 43.72123 l -0.007,2.96101 -0.007,2.96101 -20.0758,14.93763 c -34.1295,25.39444 -38.39263,28.52785 -47.26182,34.73741 -2.47929,1.73583 -7.80911,5.59222 -11.84404,8.56977 -15.80311,11.6618 -26.16299,19.09499 -26.61329,19.09499 -0.0571,0 -0.0636,-0.13921 -0.0144,-0.30936 z"
     id="path1506" />
  <path
     style="fill:#ff0000;stroke-width:0.176777"
     d="m 864.61481,474.22593 c 0,-0.0849 0.36164,-1.73553 0.80363,-3.66812 0.442,-1.93258 1.36113,-6.29802 2.04252,-9.70097 1.40021,-6.99282 3.60274,-17.29473 5.46132,-25.54423 1.51086,-6.70608 6.49208,-28.37561 7.2305,-31.45444 l 0.52715,-2.1979 1.82274,-1.79851 c 2.72068,-2.6845 38.71576,-37.62383 44.42593,-43.12288 2.72236,-2.62171 8.56925,-8.31236 12.99309,-12.64588 18.98855,-18.60087 24.64512,-24.01149 26.90572,-25.73581 0.94327,-0.7195 1.74431,-1.30819 1.78007,-1.30819 0.0358,0 0.0291,2.82401 -0.0148,6.27557 l -0.0798,6.27558 h 1.17234 c 1.02133,0 1.17234,0.042 1.17234,0.3259 0,0.17924 -0.43376,4.93232 -0.96392,10.5624 -1.73066,18.37913 -1.79786,19.59583 -2.39329,43.33106 -0.0981,3.9096 -0.17833,11.62968 -0.17833,17.15573 v 10.04737 l -2.60745,1.93317 c -1.4341,1.06324 -9.01119,6.70128 -16.83798,12.52896 -32.54792,24.23459 -37.80752,28.1039 -47.65574,35.05873 -3.31366,2.3401 -8.9544,6.4107 -12.535,9.04576 l -6.51016,4.79103 h -8.28046 c -4.5996,0 -8.28047,-0.0686 -8.28047,-0.15433 z"
     id="path1508" />
  <path
     style="fill:#ff0000;stroke-width:0.5"
     d="m 549.67183,767.4766 c -0.3556,-0.92668 0.39218,-17.35413 2.19529,-48.2266 1.12749,-19.30461 1.33151,-26.76331 1.34719,-49.25 0.0156,-22.36014 -0.11567,-27.47639 -0.84023,-32.75 -1.51894,-11.05545 -2.59619,-13.90863 -5.90962,-15.65214 -3.4117,-1.79521 -8.5933,0.0737 -11.17734,4.03141 -1.44379,2.21132 -2.94038,8.98798 -5.81401,26.32627 -2.27521,13.72762 -8.07172,53.49161 -10.72078,73.54446 -1.93072,14.61517 -3.51978,24.57324 -4.21167,26.39304 -0.24007,0.63143 -0.74118,1.39954 -1.11357,1.70691 -1.00311,0.82794 -23.07479,3.66162 -59.42709,7.62955 -17.7375,1.93609 -35.00092,3.85774 -38.36316,4.27033 C 407.2949,766.5235 404,766.50147 404,765.42203 c 0,-2.46866 3.8056,-33.32673 8.74654,-70.92203 5.9057,-44.93623 8.12856,-67.01597 8.78381,-87.25 0.27162,-8.3875 0.71033,-19.075 0.97491,-23.75 0.26458,-4.675 0.73653,-15.46222 1.04877,-23.97159 0.40675,-11.08487 0.74549,-15.64936 1.19471,-16.09859 0.34485,-0.34485 16.68621,-3.80075 36.31413,-7.67977 19.62792,-3.87903 50.99803,-10.07842 69.71135,-13.77642 18.71332,-3.698 34.45497,-6.72363 34.98145,-6.72363 0.5666,0 4.33151,3.33433 9.22578,8.17066 11.30884,11.17495 17.91298,15.70655 22.16341,15.20798 4.25689,-0.49932 16.38247,-5.6336 39.60514,-16.76982 12.54701,-6.01681 20.10163,-9.13053 24.76387,-10.2067 3.30972,-0.76398 4.08417,-0.36172 12.19119,6.33224 6.91703,5.71138 9.6266,7.3438 14.14159,8.5198 4.9331,1.28491 13.22087,0.75374 24.64981,-1.57984 10.54119,-2.15232 15.89229,-6.15607 39.75354,-29.74405 7.15,-7.06811 19.1875,-19.38903 26.75,-27.37981 15.77382,-16.66714 14.34012,-16.10367 14.44084,-5.67546 0.0358,3.71056 0.25625,6.125 0.55916,6.125 0.33025,0 0.49789,18.12086 0.4938,53.375 -0.003,29.35625 0.24971,94.63184 0.56249,145.05686 0.43019,69.35092 0.42795,91.76886 -0.009,92.03902 -1.11656,0.69008 -105.67141,9.06621 -112.61004,9.02146 -2.74768,-0.0177 -2.56884,4.75937 -2.66985,-71.31489 -0.096,-72.32718 -0.20402,-76.56601 -2.07893,-81.60337 -0.60937,-1.63719 -1.22413,-2.349 -2.48302,-2.875 -3.48594,-1.45652 -7.47851,-0.55135 -9.81477,2.22513 -4.14858,4.93031 -7.46416,22.51661 -14.38985,76.32579 -1.38039,10.725 -3.62889,27.6 -4.99665,37.5 -1.36777,9.9 -2.77196,20.24821 -3.12042,22.99603 l -0.63356,4.99604 -7.25,1.11995 c -25.64917,3.96221 -79.58076,11.13798 -83.71072,11.13798 -0.73044,0 -1.4533,-0.34565 -1.61745,-0.7734 z"
     id="path1510" />
  <path
     style="fill:#ff0000;stroke-width:0.0625"
     d="m 760.82411,486.57812 c 8.72542,-8.85608 13.86142,-14.1842 22.48723,-23.32837 2.0103,-2.13112 4.34425,-4.56381 5.18654,-5.406 0.8423,-0.84219 2.18752,-2.22031 2.98938,-3.0625 0.80186,-0.84219 1.47993,-1.53916 1.50682,-1.54883 0.0269,-0.01 0.0658,0.41639 0.0865,0.9468 0.0212,0.54335 0.0802,1.12868 0.13519,1.34073 0.1604,0.61899 0.21977,2.00226 0.22075,5.14276 10e-4,3.82771 0.14713,6.67301 0.3727,7.26629 0.0595,0.15642 0.0848,0.16475 0.50168,0.16475 h 0.4391 v 11.0625 11.0625 h -18.7564 -18.75641 z"
     id="path1512" />
  <path
     style="fill:#ff0000;stroke-width:0.0441942"
     d="m 681.01236,767.82473 c -0.0187,-0.046 -0.0766,-0.24264 -0.12865,-0.4371 l -0.0946,-0.35355 -0.41943,-0.0129 c -0.23069,-0.007 -0.43744,-0.0308 -0.45945,-0.0528 -0.11418,-0.11419 -0.10835,-5.75917 0.0119,-11.53527 0.0369,-1.77281 0.008,-5.56428 -0.10484,-13.61181 -0.0632,-4.51514 -0.12903,-11.29117 -0.17219,-17.71081 l -0.0197,-2.92787 h 31.30784 31.30783 v 21.19111 c 0,16.92337 -0.0111,21.19113 -0.0552,21.19121 -0.0304,4e-5 -1.99427,0.14867 -4.36418,0.33026 -27.34131,2.09497 -51.22873,3.79343 -56.02006,3.98316 -0.71442,0.0283 -0.75708,0.0254 -0.78931,-0.0536 z"
     id="path1514" />
  <path
     style="fill:#ff0000;stroke-width:0.5"
     d="m 943.07407,868.375 c -0.95809,-2.40724 -2.99073,-9.85961 -8.14842,-29.875 -2.76369,-10.725 -5.20782,-19.725 -5.43139,-20 -0.22357,-0.275 -2.80515,-10.0625 -5.73683,-21.75 -8.44077,-33.65009 -11.27545,-43.40544 -14.63984,-50.38199 -3.30047,-6.84402 -6.42145,-8.12643 -11.83853,-4.86443 -6.38132,3.84263 -15.03841,10.55364 -27.05346,20.97197 -36.93215,32.02408 -38.10699,32.96853 -37.50404,30.14945 0.13234,-0.61875 0.82634,-6.3 1.54222,-12.625 2.7564,-24.35367 10.5389,-85.74982 19.9645,-157.5 2.31206,-17.6 5.13436,-39.3125 6.27177,-48.25 1.13742,-8.9375 2.60068,-19.0625 3.25169,-22.5 0.65102,-3.4375 1.42662,-7.9375 1.72357,-10 0.5209,-3.61796 0.6326,-3.83803 3.17244,-6.25 5.51568,-5.23801 13.57511,-12.04538 21.4402,-18.10941 12.94388,-9.9798 54.67427,-41.15839 60.03705,-44.85629 L 955,469.17275 v 4.99696 c 0,3.4528 0.18613,5.059 0.60232,5.19773 0.46738,0.15579 0.40597,5.85017 -0.2741,25.41667 -2.72563,78.4196 -4.38486,132.88372 -6.06145,198.96589 -1.4206,55.99273 -1.76221,74.65121 -1.7645,96.375 -0.002,18.58846 -0.1044,21.625 -0.72962,21.625 -1.03318,0 -1.18521,1.5972 -1.49914,15.75 -0.47287,21.31829 -0.90959,32.25 -1.2884,32.25 -0.20009,0 -0.61006,-0.61875 -0.91104,-1.375 z"
     id="path1516" />
  <path
     style="fill:#ff0000;stroke-width:0.5"
     d="m 1117.8785,818.90611 c -2.3242,-3.24836 -7.5876,-10.74361 -11.6964,-16.65611 -12.6819,-18.24904 -28.1413,-39.99363 -32.3485,-45.5 -10.6024,-13.8765 -17.0386,-20 -21.0212,-20 -1.7449,0 -12.7333,3.8862 -25.0624,8.86364 -21.3144,8.60494 -44.41951,17.63352 -44.61805,17.43498 -0.48335,-0.48335 10.90977,-59.42721 41.41255,-214.25352 l 8.512,-43.2049 -0.5293,-43.2951 c -0.2912,-23.81231 -0.6758,-45.93885 -0.8548,-49.1701 l -0.3254,-5.875 h 15.7246 15.7246 l 3.9517,5.625 c 20.9304,29.7931 32.9905,43.875 37.5756,43.875 0.6336,0 3.0138,-0.98071 5.2893,-2.17935 3.8676,-2.03732 7.7342,-4.4339 22.578,-13.99435 3.2675,-2.10447 6.2392,-3.8263 6.6039,-3.8263 0.3878,0 1.0718,1.40054 1.6481,3.375 1.2858,4.40488 4.9806,17.02184 8.3827,28.625 6.0809,20.73984 19.6598,71.50153 19.6704,73.5337 0,0.79413 -11.8525,7.91047 -29.4959,17.70332 -12.1003,6.71618 -23.5552,13.5729 -25.158,15.0591 -1.3371,1.23977 -1.342,1.271 -1.342,8.4935 0,12.69677 2.2933,78.858 4.0194,115.96038 1.7173,36.91405 3.9595,80.73784 4.4512,87 0.2591,3.3 0.479,8.5875 0.4886,11.75 0.01,3.1625 0.2465,10.34495 0.5265,15.961 0.2799,5.61605 0.4212,10.2988 0.3139,10.40611 -0.1074,0.10731 -2.0968,-2.46264 -4.4211,-5.711 z"
     id="path1518" />
  <path
     style="fill:#ff0000;stroke-width:0.0441942"
     d="m 310.55246,683.08725 v -26.73748 h 26.25134 26.25134 v 0.16988 c 0,0.28188 -0.49172,8.48265 -0.84043,14.01645 -0.75793,12.02796 -1.32197,19.30881 -1.55004,20.0082 -0.0256,0.0786 -0.12848,0.21301 -0.22856,0.29868 l -0.18197,0.15575 -0.0557,0.58521 c -0.0851,0.8942 -0.15325,1.42737 -0.19002,1.48686 -0.14028,0.22698 -10.59906,3.75602 -33.54605,11.31923 -2.07823,0.68497 -4.97184,1.66292 -6.43025,2.17321 -3.8573,1.34967 -9.38966,3.26148 -9.438,3.26148 -0.026,0 -0.0417,-10.03181 -0.0417,-26.73747 z"
     id="path1520" />
  <path
     style="fill:#ff0000;stroke-width:0.5"
     d="m 35.5,761.32505 c 0,-0.84075 5.097668,-9.7666 20.60287,-36.07505 8.670987,-14.7125 19.927255,-33.8274 25.013929,-42.47755 l 9.248496,-15.72755 13.942355,-4.60369 C 194.20814,632.75653 204.75889,629.16738 221,622.74484 c 5.66783,-2.24134 7.11214,-3.03652 9.00886,-4.95992 5.08292,-5.1544 6.64045,-16.43107 2.79991,-20.2716 -1.27596,-1.27597 -2.28549,-1.46218 -13.55877,-2.50106 -15.95047,-1.46989 -78.27829,-5.40523 -116.125,-7.33206 L 91,587.0629 91.0015,582.78145 C 91.0087,559.22999 94.87861,450.60468 97.736,393.75 c 0.393895,-7.8375 0.8459,-17.85 1.00445,-22.25 0.15855,-4.4 0.412265,-9.40625 0.56381,-11.125 l 0.27553,-3.125 28.8352,-0.002 c 26.40943,-0.002 29.42408,-0.0886 35.8352,-1.02405 8.59058,-1.25341 20.27283,-3.86359 38,-8.4904 18.76073,-4.89658 110.77715,-29.90516 112,-30.4398 0.55,-0.24047 8.3125,-6.56952 17.25,-14.06456 8.9375,-7.49504 19.7375,-16.45666 24,-19.91472 4.2625,-3.45806 13.6,-11.14037 20.75,-17.0718 15.95974,-13.24011 17.51118,-14.49217 17.95694,-14.49217 0.19478,0 0.23598,0.95625 0.0916,2.125 -0.14441,1.16875 -0.4999,6.5125 -0.78998,11.875 -1.78795,33.05286 -3.52357,58.71465 -6.27295,92.74821 -0.68861,8.52401 -2.27277,28.21151 -3.52035,43.75 -1.24758,15.53848 -2.42517,28.40129 -2.61687,28.58401 -0.37425,0.35673 -35.903,8.3012 -68.09855,15.22731 -56.61768,12.17995 -64.69198,14.34919 -68.46478,18.39377 -1.03985,1.11474 -1.24707,1.91746 -1.439,5.57414 -0.20648,3.93404 -0.13318,4.36877 0.92694,5.49721 l 1.15115,1.22535 h 63.91284 c 35.15207,0 63.91126,0.16875 63.90932,0.375 -0.002,0.20625 -0.33491,4.65 -0.73994,9.875 -0.95218,12.28353 -2.28171,35.70796 -4.75349,83.75 -4.67685,90.90007 -6.16632,116.5238 -6.98525,120.16856 -0.24126,1.07376 -0.62521,2.12223 -0.85322,2.32994 -0.22802,0.2077 -35.40207,12.02197 -78.16457,26.25393 -42.7625,14.23196 -80.9,26.99465 -84.75,28.36154 -9.62231,3.41628 -13.12643,5.35868 -18.01489,9.98603 l -4.12011,3.9 H 105.0575 C 66.800875,761.75 35.5,761.55875 35.5,761.32505 Z"
     id="path1522" />
  <path
     style="fill:#ff0000;stroke-width:0.5"
     d="m 58.292606,907.25 c -0.168721,-0.9625 -1.773715,-11.3125 -3.566654,-23 -1.792938,-11.6875 -5.377707,-34.525 -7.966152,-50.75 -2.588446,-16.225 -5.743801,-36.5875 -7.011901,-45.25 -1.2681,-8.6625 -2.721827,-18.37226 -3.230505,-21.57723 l -0.924868,-5.82723 2.187992,-4.17277 C 38.983914,754.37774 51.2943,733.2625 65.136932,709.75 L 90.305355,667 l 3.22232,-1.09864 C 95.299955,665.29711 115.3125,658.69132 138,651.22183 c 57.25849,-18.85143 78.49616,-26.26893 87.32415,-30.499 3.06991,-1.47099 4.4569,-2.47263 5.62689,-4.06359 4.46105,-6.06608 5.2625,-15.95778 1.54629,-19.08476 -1.70771,-1.43694 -4.79641,-1.87556 -23.24733,-3.30127 -19.04868,-1.47191 -75.33181,-4.95208 -106.625,-6.59299 L 91,587.07065 91.003,580.78532 C 91.01,566.52593 93.854505,475.48797 94.79653,459.375 l 0.2997,-5.125 90.07688,0.019 90.07689,0.0189 -10.5,2.68291 c -14.9225,3.81294 -18.77287,5.32307 -20.57162,8.06832 -0.4458,0.68038 -0.88016,2.81649 -1.03061,5.06844 -0.23204,3.47305 -0.14235,4.04058 0.83238,5.26743 l 1.09243,1.375 H 309.03629 373 l -0.005,1.125 c -0.002,0.61875 -0.22053,3.6 -0.48484,6.625 -0.78668,9.00343 -2.34105,36.34668 -5.2583,92.5 -5.33286,102.65065 -6.00258,113.42798 -7.18449,115.61345 -0.34226,0.63289 -23.84364,8.68054 -82.13752,28.12661 -44.91194,14.98204 -83.7371,28.07672 -86.27814,29.09928 -12.98946,5.22725 -15.24476,7.75279 -68.4574,76.66066 -9.34397,12.1 -21.71989,28.075 -27.50203,35.5 -5.78215,7.425 -15.537111,19.98411 -21.677697,27.90913 -6.140585,7.92502 -12.121228,15.46252 -13.290318,16.75 L 58.599372,909 Z"
     id="path1524" />
  <path
     style="fill:#ff0000;stroke-width:0.176777"
     d="m 1917.972,1007.141 c -1.6869,-2.3888 -27.0391,-39.27919 -42.3078,-61.56246 -30.0541,-43.86132 -42.4373,-62.06578 -45.7897,-67.31538 -1.5394,-2.41059 -5.4409,-8.29725 -8.67,-13.08148 -3.2291,-4.78423 -5.8741,-8.83327 -5.8778,-8.99788 -0.01,-0.40838 1.6279,-2.14383 3.4908,-3.70022 0.8473,-0.70793 2.1371,-1.85431 2.8663,-2.54753 0.7292,-0.69322 2.0816,-1.76102 3.0052,-2.37289 3.433,-2.27418 4.5963,-3.9489 3.8054,-5.47841 -1.0304,-1.99255 -5.0904,-3.67618 -14.9423,-6.19631 -8.1077,-2.07396 -11.623,-3.18399 -14.7166,-4.64698 l -1.5468,-0.73149 v -1.10233 c 0,-2.74623 1.7515,-13.34725 7.4317,-44.97883 1.1628,-6.47539 2.1142,-11.82509 2.1142,-11.88823 0,-0.0631 25.1575,-0.11482 55.9056,-0.11483 l 55.9057,-2e-5 v 5.25912 c 0,4.03467 0.075,5.77361 0.3124,7.46884 0.7948,5.67803 1.382,8.33953 24.7874,112.34159 14.1687,62.95882 16.1523,71.78981 20.9458,93.24971 2.0524,9.18796 3.776,16.88441 3.8303,17.10311 l 0.099,0.3978 h -24.9357 -24.9358 z"
     id="path1526" />
  <path
     style="fill:#ff0000;stroke-width:0.015625"
     d="m 1778.8437,848.44531 v -10.42187 h 0.9634 0.9633 l 2.7124,0.70424 c 11.793,3.06181 19.9865,5.19957 21.3453,5.5692 0.5554,0.15107 0.8835,0.27432 1.1995,0.45055 0.1099,0.0613 0.2193,0.10508 0.3943,0.15791 0.2881,0.087 0.3456,0.12002 0.384,0.22068 0.024,0.0626 0.025,0.0852 0.01,0.15838 -0.037,0.17826 -0.1636,0.38925 -0.4093,0.68435 -0.9253,1.11144 -3.323,3.10698 -8.0629,6.71041 -1.983,1.50762 -5.5945,4.19552 -8.1003,6.02885 l -0.2176,0.15918 h -5.591 -5.5911 z"
     id="path1528" />
  <path
     style="fill:#ff0000;stroke-width:0.00390625"
     d="m 1370.7111,1061.1099 c 0.01,-0.01 0.3172,-0.2542 0.5174,-0.4131 0.3932,-0.3118 0.8177,-0.6422 1.1563,-0.8999 0.073,-0.056 0.1541,-0.1174 0.1801,-0.1372 0.026,-0.02 0.081,-0.067 0.1212,-0.1057 0.5106,-0.4805 0.8657,-0.7957 1.1791,-1.0468 0.5493,-0.4399 0.9925,-0.6835 1.3669,-0.7512 0.063,-0.012 0.1394,-0.02 0.1826,-0.02 0.033,0 0.044,0 0.082,-0.014 0.054,-0.017 0.094,-0.025 0.1239,-0.025 0.048,0 0.1867,0.058 0.2972,0.1254 0.043,0.026 0.067,0.043 0.1765,0.1225 0.1499,0.1091 0.2775,0.2387 0.4106,0.4169 0.2048,0.2744 0.3998,0.6443 0.5887,1.1166 0.044,0.11 0.1781,0.4672 0.2266,0.6033 0.082,0.2317 0.1754,0.5166 0.2573,0.7891 0.028,0.092 0.071,0.2396 0.071,0.2423 0,10e-4 -1.5622,0 -3.4715,0 -2.9367,0 -3.4707,-8e-4 -3.4658,-0.01 z"
     id="path1530" />
  <path
     style="fill:#ff0000;stroke-width:0.00390625"
     d="m 1393.2946,1211.772 c -0.04,-0.026 -0.1195,-0.096 -0.249,-0.2182 -0.044,-0.042 -0.062,-0.056 -0.074,-0.059 -0.031,-0.01 -0.11,-0.044 -0.1649,-0.072 -0.4814,-0.2495 -1.2161,-0.9182 -2.2122,-2.0132 l -0.033,-0.036 h 1.3689 1.3689 l 0.01,0.063 c 0.028,0.205 0.066,0.4413 0.1001,0.6123 0.058,0.2938 0.086,0.4808 0.1013,0.6758 0.026,0.3251 -0.01,0.5558 -0.093,0.6836 -0.016,0.024 -0.052,0.061 -0.072,0.075 l -0.016,0.011 v 0.132 c 0,0.1337 8e-4,0.161 -0.01,0.161 0,0 -0.015,-0.01 -0.028,-0.015 z"
     id="path1532" />
</svg>
