<?xml version="1.0" encoding="UTF-8" standalone="no"?>
<!-- Created with Inkscape (http://www.inkscape.org/) -->

<svg
   version="1.1"
   id="svg862"
   width="2450"
   height="1680"
   viewBox="0 0 2450 1680"
   xmlns="http://www.w3.org/2000/svg"
   xmlns:svg="http://www.w3.org/2000/svg">
  <defs
     id="defs866" />
  <g
     id="g868">
    <path
       style="fill:#000000"
       d="m 1215.4976,1558.67 c -93.5663,-96.1306 -113.5251,-116.1745 -113.7651,-114.25 -0.1601,1.2836 2.2024,35.2124 5.25,75.3973 6.0332,79.5525 6.1826,82.4366 4.2693,82.4366 -0.7399,0 -25.4912,-57.0763 -59.1854,-136.4812 -31.8526,-75.0646 -58.03171,-136.3632 -58.17592,-136.219 -0.14422,0.1442 -0.70817,10.5332 -1.25323,23.0866 -0.54506,12.5534 -1.1311,22.942 -1.30232,23.0857 -4.48353,3.7649 -172.91607,118.0164 -174.4014,118.3004 -2.38799,0.4565 -2.83857,-0.967 -3.88477,-12.2725 -0.70041,-7.5688 191.81554,-714.73202 194.73244,-715.30505 1.1269,-0.22138 1.838,1.01337 2.5914,4.5 28.3295,131.0985 62.3869,287.26025 62.9464,288.62485 0.5358,1.3068 10.294,-19.9751 34.6184,-75.49999 18.6298,-42.52587 34.0134,-77.48771 34.1858,-77.69297 0.6082,-0.72405 205.7107,-77.1268 207.0462,-77.1268 2.7293,0 -0.6649,6.52348 -114.7896,220.61776 -63.8791,119.8352 -116.6058,219.0615 -117.1704,220.5028 -0.9349,2.3865 8.56,20.3713 106.302,201.3522 104.6559,193.7828 109.7718,203.5272 106.8528,203.5272 -0.7659,0 -52.4558,-52.4628 -114.8666,-116.5839 z m 72.6708,56.3339 c -3.1654,-5.5147 -177.7157,-328.9214 -180.5161,-334.4602 -4.6424,-9.1819 -12.8266,7.4223 109.4514,-222.0587 61.3691,-115.17228 111.4316,-209.53966 111.25,-209.70529 -0.1815,-0.16562 -40.2497,14.61082 -89.0403,32.83655 l -88.7101,33.13768 -33.7634,77 c -36.6068,83.48446 -36.0843,82.49996 -43.7848,82.49996 -8.6505,0 -5.8879,10.0228 -37.5315,-136.16448 -15.675,-72.41549 -28.5802,-131.58533 -28.6781,-131.48855 -0.289,0.28551 -181.4033,663.89163 -182.01404,666.90273 -0.48583,2.3953 9.57069,-4.1795 78.00763,-51 l 78.56536,-53.7497 0.5381,-6 c 0.29596,-3.3 0.82441,-14.5096 1.17433,-24.9102 0.74132,-22.0336 1.37717,-23.5898 9.63879,-23.5898 7.37673,0 5.47213,-3.9237 56.73513,116.8815 26.6244,62.7422 48.5478,113.9368 48.7188,113.7658 0.171,-0.171 -1.4884,-23.8712 -3.6875,-52.6672 -4.7376,-62.034 -4.6206,-57.4489 -1.544,-60.5256 8.1397,-8.1396 -1.0101,-16.2681 108.5455,96.4287 48.675,50.0707 88.6315,91.0554 88.7922,91.0772 0.1606,0.022 -0.8057,-1.8729 -2.1474,-4.2104 z m 560.3312,-11.4304 c -0.013,-12.0008 -0.4419,-47.0196 -0.9526,-77.8196 -0.5107,-30.8 -1.0048,-67.5465 -1.0981,-81.6589 l -0.1696,-25.6588 38.2076,-52.3412 38.2075,-52.3411 -48.5854,-0.2595 c -41.932,-0.224 -48.5854,-0.4606 -48.5854,-1.7275 0,-0.9931 106.6784,-153.6448 115.5103,-165.2898 0.1155,-0.1523 12.6595,-1.1013 27.8755,-2.109 15.2161,-1.0077 27.8767,-2.0434 28.1349,-2.3015 0.7862,-0.7863 -191.6642,-279.33421 -192.7731,-279.01493 -5.5385,1.59476 -45.6133,32.662 -45.2028,35.04263 0.2523,1.4628 10.4096,87.48464 22.5718,191.1596 l 22.1131,188.5 27.1351,49.9452 c 14.9244,27.4698 27.2492,50.6448 27.3885,51.5 0.2755,1.6913 -148.5973,73.0548 -152.401,73.0548 -1.5724,0 -24.8175,-28.8348 -32.4925,-40.3059 -0.3617,-0.5405 -21.6661,7.829 -48.9634,19.2353 -26.5778,11.1058 -49.0435,20.0039 -49.9238,19.7737 -4.1417,-1.0831 -184.9726,-130.0216 -184.9726,-131.8917 0,-1.5501 80.2646,-85.2965 141.3939,-147.5275 l 6.1061,-6.2161 53.5,-20.1841 c 29.425,-11.1012 53.8183,-20.4573 54.2074,-20.7913 0.3891,-0.334 -0.8857,-55.0539 -2.8329,-121.5998 l -3.5403,-120.99256 -3.3456,-3 c -1.8401,-1.65 -39.7981,-31.125 -84.3511,-65.5 -74.9378,-57.81853 -84.9394,-66.07826 -79.8875,-65.97427 0.6875,0.0142 71.675,18.17358 157.75,40.35428 86.075,22.1807 156.7715,40.05662 157.1033,39.72427 0.3318,-0.33236 18.6805,-99.00253 40.775,-219.26706 l 40.1717,-218.66278 96.7956,-185.83712 c 58.9975,-113.268887 97.4076,-185.954982 98.3628,-186.138944 1.6688,-0.321376 0.1536,-6.296613 62.3925,246.051624 14.2094,57.6125 26.1336,104.75 26.4982,104.75 0.3646,0 43.579,-82.40715 96.0319,-183.12701 86.0441,-165.221425 96.7935,-185.28179457 98.415,-183.6603675 0.6479,0.6479566 95.454,385.1830775 95.454,387.1632475 0,4.22665 -6.9366,-1.68616 -54.432,-46.39804 -28.0126,-26.37092 -51.0231,-47.84153 -51.1345,-47.71247 -0.1113,0.12905 -11.5762,21.60254 -25.4775,47.71887 l -25.2751,47.48422 -8.3114,40.01578 c -4.5713,22.00867 -8.3245,40.80436 -8.3405,41.76819 -0.016,0.96383 10.3633,17.19345 23.065,36.06582 l 23.094,34.31341 -18.344,87.67989 c -14.7315,70.4128 -18.6479,87.68074 -19.8873,87.68418 -0.8489,0.002 -12.3239,-11.68998 -25.5,-25.98297 -13.1762,-14.29299 -24.1013,-25.55906 -24.2781,-25.03572 -0.1768,0.52335 -4.0467,22.32938 -8.5997,48.45785 l -8.2783,47.50631 42.8408,188.7794 c 44.8405,197.59147 43.6958,192.27937 41.4368,192.27937 -1.8671,0 -224.8849,-323.6261 -225.3069,-326.94779 -0.1783,-1.4037 16.9775,-96.47367 38.124,-211.26661 l 38.4481,-208.71444 -7.6717,-7.41336 c -14.1729,-13.69566 -83.5347,-78.62849 -83.7387,-78.39184 -0.1111,0.12874 -11.5757,21.60198 -25.477,47.71831 l -25.2751,47.48422 -8.3114,40.01578 c -4.5713,22.00867 -8.3245,40.80436 -8.3405,41.76819 -0.016,0.96383 10.3633,17.19345 23.065,36.06582 l 23.094,34.31341 -18.344,87.67989 c -14.7315,70.4128 -18.6479,87.68074 -19.8873,87.68418 -0.8489,0.002 -12.3239,-11.68998 -25.5,-25.98297 -13.1762,-14.29299 -24.1013,-25.55906 -24.2781,-25.03572 -0.1768,0.52335 -4.0463,22.32738 -8.5989,48.4534 l -8.2775,47.50187 40.9731,180.78385 c 22.5352,99.43111 41.3566,181.20071 41.8254,181.71031 0.5211,0.5664 16.6966,-0.1208 41.6258,-1.7685 47.1557,-3.1168 48.2735,-3.147 48.2735,-1.3036 0,0.7449 -14.3232,22.0464 -31.8293,47.3368 l -31.8294,45.9824 4.5794,-0.3616 c 6.6603,-0.5259 82.0761,-5.312 83.7032,-5.312 4.2441,0 -268.891,399.0379 -273.6701,399.8196 -1.8879,0.3087 -1.9546,-0.4169 -1.9778,-21.5 z m 131.2044,-183.3196 c 66.2181,-95.975 121.7894,-176.53 123.4917,-179.0111 l 3.0952,-4.5111 -33.6336,2.1934 c -48.8662,3.1868 -48.1337,3.2933 -48.1337,-6.9994 0,-5.0149 -2.4593,-1.1161 32.8624,-52.0976 12.1656,-17.5592 22.0038,-32.0413 21.8627,-32.1824 -1.4121,-1.4121 -131.0721,8.6554 -132.2162,10.2659 -0.7198,1.0133 -24.0215,34.0173 -51.7814,73.3423 l -50.4727,71.5 42.9616,0.5 42.9617,0.5 1.911,2.3608 c 5.201,6.4254 5.6548,5.6419 -37.1836,64.1994 l -39.0946,53.4398 0.5985,53 c 0.6502,57.5788 1.7536,118.6851 2.1354,118.2638 0.1315,-0.1451 54.4175,-78.7888 120.6356,-174.7638 z m -355.9416,-0.8762 c 58.9406,-24.6436 50.8683,-25.0536 72.2612,3.67 6.6,8.8616 12.264,16.1332 12.5866,16.1591 0.8132,0.065 133.2338,-62.9446 134.1717,-63.8431 0.4171,-0.3996 -10.4521,-21.4002 -24.1537,-46.6681 l -24.912,-45.9417 -22.6155,-192.5 c -12.4385,-105.87496 -22.6068,-194.12677 -22.5963,-196.1151 0.029,-5.38982 1.4537,-6.66018 31.8432,-28.38486 21.1377,-15.11083 27.5735,-20.18631 26.3265,-20.76214 -2.1443,-0.99018 -292.564,-75.6331 -292.9244,-75.28667 -0.1507,0.14482 29.2906,23.16504 65.425,51.15606 36.1344,27.99101 66.479,52.01775 67.4325,53.39275 2.9907,4.31307 9.9301,253.16156 7.1634,256.87956 -1.5887,2.1348 -11.9716,6.419 -56.0345,23.1204 l -54.0846,20.5 -69.431,71.5 -69.431,71.5 3.4868,2.5 c 49.6545,35.6021 168.0151,118.742 168.7473,118.533 0.55,-0.157 21.5824,-8.8912 46.7388,-19.4092 z m -31.2388,-110.1238 c -5.8403,-5.8403 -3.5055,-10.938 15.1087,-32.9875 l 14.7842,-17.5125 15.9123,-7.25 c 27.2052,-12.3954 29.1967,-11.1783 30.7518,18.7933 0.9566,18.4354 3.4395,16.2666 -34.3155,29.9724 -32.8045,11.9086 -38.175,13.0508 -42.2415,8.9843 z m 48.5,-23.0088 c 9.35,-3.4205 17.3688,-6.5591 17.8195,-6.9746 0.7394,-0.6817 -0.7954,-22.8258 -1.6406,-23.6711 -0.1944,-0.1943 -6.5365,2.5331 -14.0935,6.061 l -13.74,6.4143 -9.1727,10.8863 c -5.045,5.9874 -11.129,13.2301 -13.5201,16.0947 l -4.3474,5.2084 10.8474,-3.9 c 5.9661,-2.145 18.4974,-6.6986 27.8474,-10.119 z m 312.9181,-339.44473 c -20.5799,-90.72284 -37.4147,-166.54718 -37.4106,-168.49853 0,-1.95134 4.0038,-26.47543 8.888,-54.49796 9.8768,-56.66669 9.2062,-54.54994 17.281,-54.54994 5.7049,0 5.5602,-0.12312 26.2889,22.37009 10.4185,11.30533 19.0607,20.43715 19.2049,20.29292 0.4461,-0.44605 31.3297,-148.51484 31.3297,-150.20735 0,-0.87668 -10.125,-16.64138 -22.5,-35.03267 -26.7997,-39.82872 -24.996,-28.76314 -13.6177,-83.54238 l 8.8526,-42.61939 25.698,-48.38061 c 27.5205,-51.81148 28.2299,-52.88061 35.0881,-52.88061 5.3491,0 1.2317,-3.48155 49.3526,41.73123 20.6235,19.37718 37.6392,35.08931 37.8127,34.91585 0.1734,-0.17347 -18.0128,-74.62729 -40.4138,-165.45294 -22.401,-90.82566 -41.0428,-164.812791 -41.4262,-164.415851 -0.3834,0.396941 -41.4495,78.977791 -91.2579,174.624111 l -90.5608,173.9024 -40.0182,217.54319 c -22.01,119.64876 -39.6661,217.89531 -39.2357,218.32567 0.4303,0.43036 8.3059,2.70484 17.5012,5.05441 19.9931,5.10861 20.0414,5.18569 8.4751,13.53644 -4.5527,3.28701 -8.1072,6.55925 -7.9315,7.30157 0.3101,1.30949 175.4921,255.95668 175.842,255.60668 0.097,-0.097 -16.6624,-74.4035 -37.2424,-165.12633 z m 282,-16 c -20.5799,-90.72284 -37.4147,-166.54718 -37.4106,-168.49853 0,-1.95134 4.0038,-26.47543 8.888,-54.49796 9.8768,-56.66669 9.2062,-54.54994 17.281,-54.54994 5.7049,0 5.5602,-0.12312 26.2889,22.37009 10.4185,11.30533 19.0607,20.43715 19.2049,20.29292 0.4461,-0.44605 31.3297,-148.51484 31.3297,-150.20735 0,-0.87668 -10.125,-16.64138 -22.5,-35.03267 -26.7997,-39.82872 -24.996,-28.76314 -13.6177,-83.54238 l 8.8526,-42.61939 25.698,-48.38061 c 27.5205,-51.81148 28.2299,-52.88061 35.0881,-52.88061 5.3491,0 1.2317,-3.48155 49.3526,41.73123 20.6235,19.37718 37.6392,35.08931 37.8127,34.91585 0.1734,-0.17347 -18.0128,-74.62729 -40.4138,-165.45294 -22.401,-90.82566 -41.0428,-164.812791 -41.4262,-164.415851 -0.3834,0.396941 -41.4495,78.977791 -91.2579,174.624111 l -90.5608,173.9024 -40.0114,217.50642 c -39.2572,213.406 -39.9785,217.55788 -38.2638,220.23568 3.6527,5.70438 192.7409,279.79306 192.9082,279.62576 0.097,-0.097 -16.6625,-74.4034 -37.2425,-165.12623 z m -992.7855,535.70353 c -0.2762,-0.9625 -7.9619,-29.2376 -17.0794,-62.8336 l -16.5772,-61.0837 25.9937,-106.9163 c 14.2965,-58.804 26.2428,-107.9581 26.5473,-109.2313 0.9684,-4.0491 3.3901,-2.4417 42.6585,28.3149 21.0663,16.5 45.7324,35.8176 54.8134,42.9281 l 16.5111,12.9281 -8.1576,-8.9281 c -4.4867,-4.9105 -23.9575,-26.0281 -43.2686,-46.9281 -21.7457,-23.5349 -35.0088,-38.6438 -34.8424,-39.6914 0.738,-4.647 96.7573,-81.6011 96.7736,-77.5586 0,0.6875 4.5028,45.3497 10,99.2493 12.122,118.854 11.8463,107.9947 2.5012,98.507 -6.3114,-6.4078 -4.3344,-11.7552 -19.4748,52.6733 l -13.202,56.1796 9.6702,41.5105 c 5.3185,22.8308 9.5139,42.3217 9.323,43.3132 -0.6567,3.4096 -141.3268,40.5751 -142.19,37.5671 z m 69.8674,-27.7462 c 32.45,-8.6788 59.2966,-16.055 59.6591,-16.3917 0.3626,-0.3367 -3.1249,-16.775 -7.75,-36.5297 -10.6384,-45.4393 -11.0034,-36.4711 4.0909,-100.503 6.875,-29.1645 12.5,-53.6846 12.5,-54.489 0,-2.7525 -111.3577,-88.9699 -112.2343,-86.8961 -0.4197,0.9931 -11.5062,46.0475 -24.6365,100.1208 l -23.8734,98.3151 14.331,52.6849 c 17.8126,65.4849 16.3176,60.4328 17.728,59.9088 0.6518,-0.2422 27.7352,-7.5413 60.1852,-16.2201 z m 72.9876,-303.15 c -9.0086,-89.4634 -7.1536,-80.9206 -15.9888,-73.6332 -3.8494,3.1749 -20.1637,16.6914 -36.2542,30.0366 l -29.2554,24.264 44.2447,47.9168 c 24.3345,26.3542 44.3903,47.7712 44.5682,47.5932 0.178,-0.178 -3.1135,-34.4578 -7.3145,-76.1774 z M 949.52363,940.71862 c 0,-0.54284 -47.87207,-189.47926 -48.27894,-190.5422 -0.12158,-0.31764 -17.99606,15.31961 -39.72106,34.74945 -36.31166,32.47548 -43,37.76137 -43,33.98351 0,-0.73951 8.55,-66.23718 19,-145.55037 10.45,-79.31318 19,-144.37261 19,-144.57649 0,-0.82817 105.39757,-78.81979 107.12844,-79.27242 2.48692,-0.65034 2.8123,-19.63165 -4.10115,239.24384 -6.86512,257.06603 -6.70904,252.5 -8.63125,252.5 -0.76782,0 -1.39604,-0.24089 -1.39604,-0.53532 z m 0.42913,-274.46468 c 2.93766,-108.075 5.25112,-196.60425 5.14103,-196.73167 -1.06207,-1.22921 -88.45466,65.9596 -88.94911,68.38549 -1.19295,5.85294 -33.67546,254.81665 -33.40405,256.02689 0.15565,0.69407 14.36696,-11.32516 31.58069,-26.70939 l 31.2977,-27.97132 h 5.49776 c 9.22034,0 7.8617,-3.58938 26.40685,69.76407 14.65714,57.97483 16.53283,64.62029 16.79396,59.5 0.16168,-3.17024 2.69751,-94.18907 5.63517,-202.26407 z M 51.523632,933.23873 c 0,-0.63902 -6.088779,-40.43871 -13.530621,-88.44375 l -13.53062,-87.28189 29.084462,-49.35008 c 15.996454,-27.14255 29.197268,-49.46289 29.335144,-49.60077 0.137875,-0.13787 32.027443,-10.68758 70.865683,-23.44379 l 70.61501,-23.1931 0.64495,-3.43789 c 0.35473,-1.89084 0.39978,-3.68306 0.10012,-3.98273 -0.29966,-0.29966 -32.95368,-2.15801 -72.56448,-4.12967 l -72.019648,-3.58483 v -5.16746 c 0,-2.8421 2.024853,-58.20027 4.499672,-123.01814 2.47482,-64.81788 4.49982,-118.63819 4.5,-119.60069 3.07e-4,-1.63574 2.464039,-1.75 37.735646,-1.75 h 37.73532 l 71.96395,-19.61847 71.96394,-19.61848 46.93186,-39.50944 c 52.99287,-44.61187 51.22092,-43.42678 50.32581,-33.65801 -0.34795,3.79742 -3.83945,51.4544 -7.75888,105.9044 -3.91942,54.45 -7.18722,99.07398 -7.26177,99.16439 -0.0746,0.0904 -28.93555,6.2935 -64.13555,13.78464 -35.2,7.49113 -64.45,13.82115 -65,14.0667 -0.55,0.24555 26.3375,0.17074 59.75,-0.16624 59.03176,-0.59537 60.74934,-0.55948 60.72658,1.26891 -0.086,6.90957 -11.83193,232.5585 -12.11807,232.79801 -0.19718,0.16506 -41.08351,13.48038 -90.85851,29.58961 -49.775,16.10922 -91.10858,29.60418 -91.85239,29.98879 -0.74382,0.38462 -30.93315,39.35563 -67.0874,86.60224 -58.864462,76.92448 -69.060208,89.53075 -69.060208,85.38774 z m 67.108778,-101.6173 c 32.66517,-42.69789 60.32716,-78.24948 61.47109,-79.00354 1.14393,-0.75406 41.86893,-14.26143 90.5,-30.01637 48.63107,-15.75493 88.85878,-29.0395 89.39492,-29.52124 0.80914,-0.72707 11.29204,-193.20063 11.4709,-210.61401 l 0.0543,-5.28767 -62.38565,0.69747 -62.38565,0.69748 -2.61435,-2.61435 c -2.03309,-2.0331 -2.61434,-3.60031 -2.61434,-7.04902 0,-8.46454 -4.00728,-7.16088 71.45562,-23.24604 37.37339,-7.96625 68.09289,-14.62538 68.26557,-14.79806 0.43274,-0.43273 13.37383,-178.85045 12.99962,-179.22466 -0.16548,-0.16549 -18.03259,14.62406 -39.70467,32.86567 l -39.40379,33.16655 -72.55557,19.79015 -72.55558,19.79015 h -35.2506 c -19.38782,0 -35.259883,0.1125 -35.271231,0.25 -0.212517,2.5749 -8.750991,229.29235 -8.639166,229.39107 0.08789,0.0776 28.734797,1.5368 63.659797,3.24269 89.03424,4.34883 81.5861,2.72792 80.80628,17.58559 -0.71695,13.65954 4.88856,11.32598 -138.470373,57.64493 l -6.164094,1.99161 -27.489451,46.69705 -27.489451,46.69706 11.369455,73 c 6.253201,40.15 11.384796,73.5625 11.403546,74.25 0.05921,2.17107 -0.370582,2.71691 60.142868,-76.38251 z m 1277.09569,-18.88981 -65.2205,-68.52233 0.6738,-86.13708 0.6738,-86.13709 -12.3723,0.69921 c -6.8047,0.38457 -12.5322,0.85917 -12.7277,1.05466 -0.1955,0.19549 4.3831,38.74191 10.1747,85.6587 5.7915,46.91679 10.3462,85.48704 10.1216,85.71167 -0.5152,0.51525 -122.583,31.12681 -124.2779,31.16581 -1.794,0.0413 -1.6633,-8.30545 2.2067,-140.97123 l 3.3985,-116.5 -16.4276,-59.55034 c -9.0352,-32.75269 -16.4276,-60.36768 -16.4276,-61.36664 0,-3.19291 2.6602,-1.59773 53.9074,32.32582 l 50.0558,33.13489 65.1655,-16.02186 c 57.0641,-14.03003 69.8713,-16.91711 69.8713,-15.75078 0,0.9158 49.0394,442.02986 49.5246,445.47891 1.1883,8.44594 -1.6237,5.80057 -68.3201,-64.27232 z m 32.3086,-164.60754 c -12.4154,-111.85358 -22.6724,-203.61955 -22.7933,-203.92439 -0.1209,-0.30483 -27.2198,6.09665 -60.2198,14.22552 -40.2037,9.90335 -61.8361,14.78785 -65.565,14.80425 l -5.565,0.0245 -41.0932,-27.25 c -22.6013,-14.9875 -40.9149,-26.96422 -40.697,-26.61493 0.2179,0.34929 6.2736,21.87983 13.4571,47.84564 l 13.0609,47.21057 -3.55,123.15436 c -1.9524,67.7349 -3.5494,123.66141 -3.5488,124.28113 6e-4,0.68363 20.4518,-3.98658 52.001,-11.87487 42.0192,-10.50612 51.9993,-13.31357 51.9962,-14.62677 0,-0.89382 -4.2772,-36.19688 -9.5,-78.45123 -10.1635,-82.22462 -10.5755,-87.11945 -7.6385,-90.74648 3.8069,-4.70132 36.4115,-5.74916 40.8479,-1.31277 l 2.6146,2.61465 -0.6033,85.47031 -0.6033,85.47031 54.6875,57.43214 c 30.0781,31.58768 54.822,57.02851 54.9865,56.53518 0.1644,-0.49333 -9.8591,-92.41352 -22.2745,-204.2671 z m -335.0682,154.87986 c -21.3186,-30.9375 -38.849,-56.37156 -38.9565,-56.52013 -0.1074,-0.14858 -18.57,7.38892 -41.028,16.75 -38.25318,15.94494 -44.46037,18.21098 -44.46037,16.231 0,-0.43401 12.57203,-64.33573 27.93783,-142.00381 l 27.93784,-141.21469 -2.4206,-76.24618 c -2.877,-90.6248 -2.8657,-89.74619 -1.1537,-89.74619 0.7157,0 19.4651,25.9875 41.6652,57.75 22.2001,31.7625 40.4804,57.90341 40.6228,58.09091 0.1425,0.1875 9.1664,-5.775 20.0532,-13.25 10.8867,-7.475 20.5182,-13.59091 21.4032,-13.59091 1.738,0 37.77,127.87091 36.5763,129.80247 -0.3209,0.51921 -13.9796,8.03365 -30.3528,16.69875 -16.3731,8.66511 -29.8591,15.82446 -29.9689,15.90967 -0.1098,0.0852 2.9225,62.01513 6.7384,137.62202 8.0882,160.25933 7.2815,139.96709 5.5642,139.96709 -0.7683,0 -18.8394,-25.3125 -40.1581,-56.25 z m 23.4168,-102.02764 c -5.7181,-113.65784 -6.0881,-123.72168 -4.6287,-125.87832 0.9464,-1.39853 12.7076,-8.19285 29.1578,-16.84404 15.1644,-7.975 27.5801,-15.02058 27.5904,-15.65684 0.026,-1.58185 -28.6718,-105.36706 -29.3118,-106.00712 -0.2813,-0.28125 -7.5309,4.25308 -16.1102,10.0763 -24.6477,16.7295 -19.3591,20.05278 -59.5764,-37.43698 -17.7241,-25.3362 -32.4287,-45.86276 -32.6769,-45.6146 -0.2482,0.24817 0.4983,31.20602 1.6588,68.79523 l 2.11,68.34401 -25.9701,130.98389 c -14.28355,72.04114 -25.79936,131.15465 -25.59065,131.36336 0.2087,0.2087 15.60515,-5.97155 34.21425,-13.73389 45.9697,-19.17508 36.4457,-23.24512 74.4338,31.8091 16.6732,24.16367 30.4499,43.79899 30.6148,43.63406 0.165,-0.16494 -2.4968,-55.89031 -5.9151,-123.83416 z m -577.49927,69.52764 c 5.06971,-76.24445 6.90047,-146.41689 3.59031,-137.61558 -1.60105,4.257 -5.05379,27.76166 -10.48331,71.36558 -6.50531,52.24343 -7.66843,58.03773 -11.8724,59.14456 -6.89378,1.81502 -127.37019,15.41558 -128.3018,14.48398 -0.22026,-0.22026 2.78894,-23.73929 6.68712,-52.26451 3.89817,-28.52522 8.74171,-64.23903 10.76342,-79.36403 l 3.67583,-27.5 0.0392,-41.79323 c 0.0384,-40.95103 0.0795,-41.80285 2.03922,-42.27067 8.86454,-2.11615 152.53119,-30.44076 154.48109,-30.45673 1.93902,-0.0159 5.29091,2.90051 14.55991,12.6682 l 12.04101,12.68884 34.06361,-16.16821 c 40.3738,-19.16331 34.44529,-18.45238 47.94056,-5.74889 l 11.06872,10.4193 14.90763,-1.91301 14.90764,-1.91301 6.67309,-6.75629 c 3.67021,-3.71597 21.82086,-22.7313 40.33479,-42.2563 18.51393,-19.525 34.53024,-35.6438 35.59182,-35.81955 1.87224,-0.30997 1.92974,0.60489 1.91708,30.5 -0.007,16.95075 0.5013,93.08185 1.12995,169.18022 0.81493,98.6486 0.83449,138.55134 0.0681,139.02497 -1.24346,0.76851 -135.00126,10.67963 -135.49694,10.03999 -0.18142,-0.23409 0.0443,-10.10063 0.5015,-21.92563 1.22669,-31.7244 2.38673,-109.89719 1.81041,-122 l -0.5,-10.5 -1.76551,9.06188 c -3.26715,16.76939 -9.55246,63.45662 -15.5738,115.68204 -0.99836,8.65916 -2.12653,16.05525 -2.50705,16.43577 -0.74333,0.74333 -105.22329,15.27119 -110.04659,15.30189 l -2.89296,0.0184 0.64831,-9.75 z m 58.79354,-8.33707 c 24.38923,-3.34789 44.39362,-6.16039 44.4542,-6.25 0.0606,-0.0896 1.76434,-14.11293 3.78615,-31.16293 6.62724,-55.8878 12.64437,-97.4074 15.61115,-107.72052 2.48415,-8.63537 14.42105,-9.59498 18.65696,-1.49984 2.00431,3.8304 2.15888,63.14159 0.31039,119.09789 -0.57919,17.53264 -0.83427,32.09632 -0.56686,32.36374 0.48666,0.48665 114.80528,-7.69073 115.41589,-8.25587 0.32056,-0.29669 -1.72459,-290.09268 -2.11904,-300.26751 l -0.20478,-5.2821 -32.40634,34.11149 c -38.37224,40.3913 -33.18457,36.51811 -52.19065,38.96635 -24.97399,3.21699 -23.27819,3.56162 -34.51155,-7.01363 -11.54328,-10.86702 -5.2714,-11.74982 -42.62724,6 -40.55968,19.27214 -36.37048,19.06904 -52.35749,2.53845 l -12.09327,-12.50445 -71.40673,14.28123 -71.40673,14.28123 -0.57327,39.95177 c -0.64064,44.64723 0.27919,35.42892 -13.86505,138.95177 -3.23128,23.65 -5.72097,43.15857 -5.53266,43.35237 0.72822,0.74945 105.76054,-11.08927 109.12335,-12.29983 1.81745,-0.65426 2.89065,-7.31256 8.80532,-54.62998 9.69203,-77.53633 10.33555,-79.92256 21.55349,-79.92256 12.44217,0 13.9027,32.07971 6.36258,139.75 -0.62043,8.85954 -0.56154,9.25 1.39517,9.25 1.12362,0 21.99777,-2.73918 46.38701,-6.08707 z m 898.60493,-41.66293 c -28.6698,-26.9664 -42.2531,-40.3932 -42.2365,-41.75 0.019,-1.55601 117.7525,-206.57679 120.4592,-209.76724 1.1193,-1.31942 54.3299,-11.87599 58.0164,-11.51002 3.0123,0.29904 156.0132,103.55336 161.8252,109.20946 1.1302,1.09991 -9.0627,163.74385 -10.3642,165.37728 -0.2852,0.35795 -240.764,28.19052 -243.5715,28.19052 -1.0834,0 -19.6132,-16.69126 -44.1286,-39.75 z m 163.2391,15.63766 c 62.975,-7.23935 114.5916,-13.2297 114.7035,-13.3119 0.2821,-0.20713 10.2965,-142.54885 10.2965,-146.35071 0,-2.9492 -2.9282,-5.07914 -71.25,-51.82698 -39.1875,-26.81326 -73.8209,-50.5488 -76.9632,-52.74565 l -5.7132,-3.99426 -24.0598,4.88051 -24.0597,4.88051 -57.5467,99.33149 c -31.6507,54.63232 -57.3867,99.81157 -57.1911,100.39833 0.5019,1.50572 75.0668,71.69662 76.2837,71.80886 0.55,0.0507 52.525,-5.83086 115.5,-13.0702 z m -72.5455,-91.34221 c -4.7814,-4.78143 -3.9074,-7.65424 12.007,-39.46842 20.5242,-41.02965 15.9172,-40.23136 58.1956,-10.08387 31.7801,22.66145 35.3429,25.8602 35.3429,31.73165 0,3.64997 -4.4388,9.27519 -7.3189,9.27519 -0.81,0 -20.9821,2.47399 -44.8269,5.49776 -50.3046,6.37915 -50.081,6.36638 -53.3997,3.04769 z m 53.1932,-13.60179 c 21.8891,-2.78098 39.8701,-5.14348 39.9579,-5.25 0.088,-0.10651 -12.9346,-9.55867 -28.9386,-21.00479 l -29.0981,-20.81112 -12.7307,25.31112 c -7.0018,13.92112 -12.7548,25.64863 -12.7844,26.06113 -0.086,1.19333 1.6755,1.01937 43.5939,-4.30634 z M 844.73055,511.50394 c 0.2421,-0.9625 6.46839,-27.57376 13.83619,-59.13612 l 13.39601,-57.38613 51.98328,-50.86387 c 52.77137,-51.63501 56.29893,-54.64515 55.21237,-47.11388 -0.29756,2.0625 -0.79547,25.8 -1.10647,52.75 -0.31099,26.95 -0.83857,53.20214 -1.17239,58.33809 l -0.60696,9.33808 -63.86637,47.91192 c -60.0959,45.08334 -68.91798,51.10093 -67.67566,46.16191 z m 122.16407,-109.75 c 0.31273,-4.95 0.83329,-26.03672 1.15679,-46.85938 l 0.58819,-37.85938 -2.80799,2.10705 c -1.54439,1.15889 -21.15199,20.22061 -43.57245,42.35939 l -40.76447,40.25232 -9.98553,42.78973 c -5.49204,23.53435 -9.98553,43.22336 -9.98553,43.75336 0,0.53 23.58054,-16.70038 52.40119,-38.28973 l 52.4012,-39.25336 z"
       id="path905" />
  </g>
</svg>
